<?xml version="1.0" encoding="UTF-8"?>
<!DOCTYPE svg PUBLIC "-//W3C//DTD SVG 1.1//EN" "http://www.w3.org/Graphics/SVG/1.1/DTD/svg11.dtd">
<svg xmlns="http://www.w3.org/2000/svg" version="1.1" width="2149px" height="1150px" style="shape-rendering:geometricPrecision; text-rendering:geometricPrecision; image-rendering:optimizeQuality; fill-rule:evenodd; clip-rule:evenodd" xmlns:xlink="http://www.w3.org/1999/xlink">
<g><path style="opacity:1" fill="#e95136" d="M 1306.5,822.5 C 1308.22,822.629 1309.88,822.962 1311.5,823.5C 1344.34,855.505 1376.67,888.005 1408.5,921C 1402.98,926.779 1396.98,932.112 1390.5,937C 1372.32,950.917 1353.66,964.084 1334.5,976.5C 1355.06,1021.62 1375.06,1066.95 1394.5,1112.5C 1341.67,1113.5 1288.67,1113.83 1235.5,1113.5C 1224.19,1088.6 1212.86,1063.6 1201.5,1038.5C 1200.83,1038.17 1200.17,1037.83 1199.5,1037.5C 1094.87,1069.21 989.201,1073.04 882.5,1049C 866.723,1045.35 851.223,1040.85 836,1035.5C 823.895,1061.38 812.062,1087.38 800.5,1113.5C 747.156,1114.16 694.156,1113.5 641.5,1111.5C 661.692,1065.61 682.026,1019.78 702.5,974C 701.269,972.595 699.936,971.429 698.5,970.5C 698.027,969.094 697.027,968.427 695.5,968.5C 689.976,965.908 684.976,962.575 680.5,958.5C 680.027,957.094 679.027,956.427 677.5,956.5C 673.264,954.555 669.597,951.888 666.5,948.5C 666.027,947.094 665.027,946.427 663.5,946.5C 662.833,946.5 662.5,946.167 662.5,945.5C 662.027,944.094 661.027,943.427 659.5,943.5C 649.895,936.894 640.895,929.56 632.5,921.5C 631.438,919.901 631.438,918.234 632.5,916.5C 639.167,911.833 644.833,906.167 649.5,899.5C 667.5,880.833 685.833,862.5 704.5,844.5C 713.5,836.5 722.5,828.5 731.5,820.5C 740.869,827.862 750.535,834.862 760.5,841.5C 819.702,709.761 878.368,577.761 936.5,445.5C 917.611,402.054 898.444,358.721 879,315.5C 843.696,331.742 808.196,347.242 772.5,362C 752.803,319.11 733.803,275.943 715.5,232.5C 750.918,217.293 786.252,201.793 821.5,186C 806.205,152.575 791.038,119.075 776,85.5C 775.251,84.365 775.417,83.365 776.5,82.5C 820.459,63.2361 864.459,44.0694 908.5,25C 909.944,24.2195 911.277,24.3861 912.5,25.5C 947.667,104.5 982.833,183.5 1018,262.5C 1052.98,183.233 1088.14,104.066 1123.5,25C 1125.55,24.6753 1127.55,25.0087 1129.5,26C 1173.33,44.8832 1216.99,64.0499 1260.5,83.5C 1245.02,117.623 1229.69,151.789 1214.5,186C 1249.5,201.667 1284.5,217.333 1319.5,233C 1319.96,233.414 1320.29,233.914 1320.5,234.5C 1302.73,273.715 1285.23,313.049 1268,352.5C 1266.49,356.194 1264.49,359.527 1262,362.5C 1226.98,346.829 1191.98,331.163 1157,315.5C 1137.64,358.597 1118.47,401.764 1099.5,445C 1157.94,578.319 1216.77,711.486 1276,844.5C 1286.28,837.28 1296.45,829.946 1306.5,822.5 Z M 1017.5,627.5 C 1059.53,719.897 1101.2,812.564 1142.5,905.5C 1122.65,911.838 1102.32,916.338 1081.5,919C 1017.85,927.474 955.184,922.807 893.5,905C 934.977,812.548 976.31,720.048 1017.5,627.5 Z"/></g>
<g><path style="opacity:1" fill="#22a6df" d="M 1751.5,418.5 C 1866.47,415.099 1962.64,455.433 2040,539.5C 2114.22,627.367 2141.89,728.367 2123,842.5C 2098.92,955.874 2036.08,1040.04 1934.5,1095C 1849.7,1136.56 1761.7,1144.89 1670.5,1120C 1563.78,1086.23 1487.28,1018.39 1441,916.5C 1402.45,821.209 1403.12,726.209 1443,631.5C 1489.7,530.8 1566.2,464.3 1672.5,432C 1698.54,424.883 1724.87,420.383 1751.5,418.5 Z M 1764.5,558.5 C 1847.58,559.526 1911.74,594.526 1957,663.5C 1992.07,724.508 1997.73,788.175 1974,854.5C 1938.64,936.494 1876.48,982.661 1787.5,993C 1696.87,996.113 1628.04,959.279 1581,882.5C 1549.25,822.784 1544.92,761.117 1568,697.5C 1596.99,628.848 1647.49,584.681 1719.5,565C 1734.48,561.619 1749.48,559.452 1764.5,558.5 Z"/></g>
<g><path style="opacity:1" fill="#ffc701" d="M 151.5,701.5 C 241.998,702.499 332.665,702.833 423.5,702.5C 423.5,619.167 423.5,535.833 423.5,452.5C 467.833,452.5 512.167,452.5 556.5,452.5C 556.5,672.833 556.5,893.167 556.5,1113.5C 512.167,1113.5 467.833,1113.5 423.5,1113.5C 423.833,1021 423.499,928.665 422.5,836.5C 332.167,836.5 241.833,836.5 151.5,836.5C 151.5,929.167 151.5,1021.83 151.5,1114.5C 106.833,1114.5 62.1667,1114.5 17.5,1114.5C 17.5,893.833 17.5,673.167 17.5,452.5C 62.1667,452.5 106.833,452.5 151.5,452.5C 151.5,535.5 151.5,618.5 151.5,701.5 Z"/></g>
<g><path style="opacity:0.502" fill="#ffe37f" d="M 556.5,452.5 C 557.5,672.999 557.833,893.666 557.5,1114.5C 512.5,1114.5 467.5,1114.5 422.5,1114.5C 422.5,1021.83 422.5,929.167 422.5,836.5C 423.499,928.665 423.833,1021 423.5,1113.5C 467.833,1113.5 512.167,1113.5 556.5,1113.5C 556.5,893.167 556.5,672.833 556.5,452.5 Z"/></g>
<g><path style="opacity:0.251" fill="#ffecaa" d="M 423.5,452.5 C 423.5,535.833 423.5,619.167 423.5,702.5C 332.665,702.833 241.998,702.499 151.5,701.5C 241.833,701.5 332.167,701.5 422.5,701.5C 422.167,618.332 422.501,535.332 423.5,452.5 Z"/></g>
<g><path style="opacity:0.937" fill="#fbae9d" d="M 1311.5,823.5 C 1309.88,822.962 1308.22,822.629 1306.5,822.5C 1308.46,819.941 1310.12,820.274 1311.5,823.5 Z"/></g>
<g><path style="opacity:0.937" fill="#f58f79" d="M 731.5,820.5 C 722.5,828.5 713.5,836.5 704.5,844.5C 712.298,836.202 720.298,828.035 728.5,820C 729.749,819.26 730.749,819.427 731.5,820.5 Z"/></g>
<g><path style="opacity:0.937" fill="#f48972" d="M 649.5,899.5 C 644.833,906.167 639.167,911.833 632.5,916.5C 637.833,910.5 643.5,904.833 649.5,899.5 Z"/></g>
<g><path style="opacity:0.812" fill="#f8a391" d="M 632.5,916.5 C 631.438,918.234 631.438,919.901 632.5,921.5C 628.648,920.122 628.648,918.455 632.5,916.5 Z"/></g>
<g><path style="opacity:0.875" fill="#f9a28f" d="M 659.5,943.5 C 661.027,943.427 662.027,944.094 662.5,945.5C 660.973,945.573 659.973,944.906 659.5,943.5 Z"/></g>
<g><path style="opacity:0.624" fill="#f8a796" d="M 663.5,946.5 C 665.027,946.427 666.027,947.094 666.5,948.5C 664.973,948.573 663.973,947.906 663.5,946.5 Z"/></g>
<g><path style="opacity:0.561" fill="#f8aa9b" d="M 677.5,956.5 C 679.027,956.427 680.027,957.094 680.5,958.5C 678.973,958.573 677.973,957.906 677.5,956.5 Z"/></g>
<g><path style="opacity:0.561" fill="#f8a999" d="M 695.5,968.5 C 697.027,968.427 698.027,969.094 698.5,970.5C 696.973,970.573 695.973,969.906 695.5,968.5 Z"/></g>
<g><path style="opacity:0.502" fill="#f4a79b" d="M 641.5,1111.5 C 694.156,1113.5 747.156,1114.16 800.5,1113.5C 747.336,1114.5 694.003,1114.83 640.5,1114.5C 640.263,1113.21 640.596,1112.21 641.5,1111.5 Z"/></g>
<g><path style="opacity:0.502" fill="#f4a79a" d="M 1394.5,1112.5 C 1395.04,1112.56 1395.38,1112.89 1395.5,1113.5C 1342,1114.83 1288.67,1114.83 1235.5,1113.5C 1288.67,1113.83 1341.67,1113.5 1394.5,1112.5 Z"/></g>
</svg>
