<?xml version="1.0" encoding="utf-8"?>
<!-- Generator: Adobe Illustrator 24.3.0, SVG Export Plug-In . SVG Version: 6.00 Build 0)  -->
<svg version="1.1" xmlns="http://www.w3.org/2000/svg" xmlns:xlink="http://www.w3.org/1999/xlink" x="0px" y="0px"
	 viewBox="0 0 595.3 841.9" style="enable-background:new 0 0 595.3 841.9;" xml:space="preserve">
<style type="text/css">
	.st0{display:none;}
	.st1{fill-rule:evenodd;clip-rule:evenodd;fill:#F5F4F4;}
	.st2{fill-rule:evenodd;clip-rule:evenodd;fill:#241E1E;}
	.st3{fill-rule:evenodd;clip-rule:evenodd;fill:#008A38;}
	.st4{fill-rule:evenodd;clip-rule:evenodd;fill:#DC0D15;}
	.st5{fill-rule:evenodd;clip-rule:evenodd;fill:#209BD8;}
	.st6{fill-rule:evenodd;clip-rule:evenodd;fill:#FFEA00;}
	.st7{fill-rule:evenodd;clip-rule:evenodd;fill:#BFBCBE;}
	.st8{fill-rule:evenodd;clip-rule:evenodd;fill:#E97C04;}
	.st9{fill-rule:evenodd;clip-rule:evenodd;fill:#F5A900;}
	.st10{fill-rule:evenodd;clip-rule:evenodd;fill:#12110C;}
</style>
<g id="Сетка" class="st0">
</g>
<g id="Слой_1">
</g>
<g id="Рабочий_стол">
</g>
<g id="Направляющие">
</g>
<g id="Page_1">
	<g id="Слой_1_1_">
		<path class="st1" d="M271.2,674c0,0,7.5-0.5,12,1.7c3.9,1.8,7.4,4.7,7.7,6.3c0.3,1.6,0,52,0,52l-19.7-8.4V674L271.2,674z"/>
		<path class="st2" d="M271.3,674.6L271.3,674.6c0.1,0,7.4-0.4,11.7,1.6c3.9,1.8,7.1,4.6,7.4,5.9c0.2,1.3,0.1,31.7,0,51.8l0.8-0.6
			l-19.7-8.4l0.4,0.6V674L271.3,674.6L271.3,674.6z M271,726.1l19.7,8.4l0.8,0.4l0-0.9c0-5.2,0.3-50.5,0-52.1c-0.4-1.8-4-4.8-8-6.7
			c-4.7-2.2-12-1.7-12.3-1.7l-0.6,0v0.6v51.5v0.4L271,726.1L271,726.1z"/>
		<path class="st3" d="M271.9,675.9c0,0,6.7,0.5,10.3,1.7c3.6,1.2,6.7,3.6,7.8,5.1c1.1,1.5,0.6,8.6,0.6,8.6l-18.9,3.6L271.9,675.9
			L271.9,675.9z"/>
		<path class="st4" d="M271.9,682.1c0,0,6.1-0.3,9.2,0.6c5.8,1.6,7.6,7,7.6,7l-8.9,3l-7.8-1.4L271.9,682.1L271.9,682.1z"/>
		<path class="st1" d="M167.2,691.2c0,0-0.9-6,1.8-12.4c2.7-6.3,12.5-10.6,26.9-11.3c14.3-0.8,53.6,20.2,73.7,24.3
			c20.1,4.1,21.4-7.6,21.4-7.6l0.1,51.8c0,0-1.4,11.7-21.4,7.6c-20.1-4.1-59.4-25.1-73.7-24.3c-14.3,0.8-21.1,7.6-26.9,11.3
			c-3.4,2.2-2.2-0.4-2.2-0.4L167.2,691.2L167.2,691.2z"/>
		<path class="st2" d="M167.8,691.1L167.8,691.1c0-0.1-0.8-6,1.8-12.1c2.6-6.1,12.5-10.2,26.4-11c7.9-0.4,24,6.1,39.6,12.4
			c12.3,5,25.1,10.1,34,11.9c8,1.6,14.1,1,18.1-1.9c3.6-2.6,4-6.1,4.1-6.2l-1.2-0.1l0,51.8l0-0.1c0,0-0.4,3.1-3.6,5.4
			c-3.7,2.7-9.5,3.2-17.1,1.7c-8.8-1.8-21.5-6.9-33.8-11.9c-16.4-6.6-31.9-12.9-40.1-12.5c-12.1,0.6-18.8,5.5-24.2,9.3
			c-1,0.8-2,1.5-3,2.1c-1.3,0.8-1.7,0.8-1.7,0.8c0.1,0,0.2,0.1,0.2,0.2c0-0.1,0.1-0.4,0.1-0.6l0.1-0.1c0,0,0-0.1,0-0.1L167.8,691.1
			L167.8,691.1L167.8,691.1L167.8,691.1z M166.3,730c-0.1,0.3-0.6,1.3,0.1,1.9c0.6,0.5,1.5,0.3,3-0.8c1-0.6,2-1.4,3-2.1
			c5.2-3.8,11.8-8.5,23.5-9.1c7.9-0.4,24,6.1,39.6,12.4c12.3,5,25.1,10.1,34,11.9c8,1.6,14.1,1,18.1-1.9c3.6-2.6,4-6.1,4.1-6.2l0,0
			v0l-0.1-51.8l-1.2-0.1c0,0-0.4,3.1-3.6,5.4c-3.7,2.7-9.5,3.2-17.1,1.7c-8.8-1.8-21.5-6.9-33.8-11.9c-16.4-6.6-31.9-12.9-40.1-12.5
			c-14.6,0.8-24.5,5-27.4,11.7c-2.8,6.5-1.9,12.7-1.8,12.8l0-0.2l-0.4,39L166.3,730L166.3,730z"/>
		<path class="st5" d="M290.5,726.4l-0.8,2.8c0,0.1-1.9,3.8-4.3,5.4c-3.1,2.2-8.3,2.6-15.1,1.2c-8.6-1.7-21.2-6.8-33.3-11.7
			c-16.7-6.7-34.1-14.7-42.8-14.2c-15.5,0.8-24.6,7.2-27.8,14.7c-3,6.9-2.5,9.2-1.8,10.4l1.6-3.9c0.3,0.5,2.2,1,2.2,1
			c0-0.1,0.5-1.1,2.4-5.4c2.2-5.2,12.6-8.4,25.4-9.1c7.4-0.4,23.2,6,38.5,12.2c12.4,5,25.3,10.2,34.4,12.1
			c8.7,1.8,14.3,0.6,19.1-2.8c2.3-1.6,2.4-2.9,2.4-3.4L290.5,726.4L290.5,726.4z"/>
		<path class="st4" d="M166.3,694.9c0,0-0.8-1.4,2-8.1c2.7-6.7,12.5-11.1,26.9-11.9c14.3-0.8,53.6,21.3,73.7,25.6
			c20.1,4.3,21.4-8,21.4-8v35.1c0,0-1.4,12.3-21.4,8c-20.1-4.3-61.2-25.6-73.7-25.6c-14.4,0-24.2,5.2-26.9,11.9
			c-2.7,6.7-2,8.1-2,8.1V694.9L166.3,694.9z"/>
		<path class="st3" d="M290.2,685.1l-0.8,2.8c0,0.1-1.9,3.8-4.3,5.4c-3.1,2.2-8.3,2.6-15.1,1.2c-8.6-1.7-21.2-6.8-33.3-11.7
			c-16.7-6.7-32.4-13.1-41.1-12.6c-15.5,0.8-23.9,3.4-27.2,11c-3,6.9,4.4,7.4,4.4,7.4c0.3,0.5-3.1,1.6-1.2-2.8
			c2.2-5.2,11.5-8.8,24.3-9.5c7.4-0.4,23.2,6,38.5,12.2c12.4,5,25.3,10.2,34.4,12.1c8.7,1.8,14.3,0.6,19.1-2.8
			c2.3-1.6,2.4-2.9,2.4-3.4L290.2,685.1L290.2,685.1z"/>
		<path class="st6" d="M290.4,712.3l-1.1,1.6c0,0.1-1.3,1.5-4.3,3.7c-3.5,2.5-9.3,3-16.6,1.5c-8.7-1.8-21.4-6.9-33.7-11.8
			c-16.5-6.7-32-12.9-40.3-12.5c-14.8,0.8-25,5.2-27.9,12.1c-2.6,6-2.3,8.1-1.9,8.8l2.1-1.2c0.1,0.1,0.1,0.2,0.1,0.2
			c0-0.1-0.3-1.5,1.9-6.8c2.5-5.9,12.2-9.9,25.8-10.6c7.8-0.4,23.8,6.1,39.3,12.3c12.4,5,25.1,10.2,34.1,12c8.2,1.7,14.5,1,18.6-2
			c3.8-2.8,3.8-4.6,3.9-4.8V712.3L290.4,712.3z"/>
		<path class="st6" d="M290.3,707.3l-1.1,1.6c0,0.1-1.3,1.6-4.3,3.7c-3.5,2.5-9.3,3-16.6,1.5c-8.7-1.8-21.4-6.9-33.7-11.8
			c-16.5-6.7-32-12.9-40.3-12.5c-14.8,0.8-25,5.2-27.9,12.1c-2.6,6-2.3,8.1-1.9,8.8l2.1-1.2c0.1,0.1,0.1,0.2,0.1,0.2
			c0-0.1-0.3-1.5,1.9-6.8c2.5-5.9,12.2-9.9,25.8-10.6c7.8-0.4,23.8,6.1,39.3,12.3c12.4,5,25.1,10.2,34.1,12c8.2,1.7,14.5,1,18.6-2
			c3.8-2.8,3.8-4.6,3.9-4.8L290.3,707.3L290.3,707.3z"/>
		<path class="st1" d="M119.7,402.2c0,0,20.1-6,22.2-51.5c2-45.5-28.2-62-31-76.1c-2.8-14.1,4.8-22.2,4.8-22.2l-44.9-4.8
			c0,0-19.5,5.6-13.1,31.1c5.1,20.3,26.8,34.4,32.5,52.1c5.6,17.7,3.6,37.4-7.2,51C72.1,395.5,71.8,401,71.8,401L119.7,402.2
			L119.7,402.2z"/>
		<path class="st2" d="M119.9,402.8c0.2-0.1,5.3-1.7,10.6-8.9c4.9-6.6,10.9-19.5,11.9-43.2c1.4-31.3-12.2-48.7-22.1-61.5
			c-4.5-5.8-8.1-10.4-9-14.8c-2.7-13.6,4.6-21.5,4.7-21.6l0.8-0.9c0,0-1.2-0.1-1.2-0.1l-44.9-4.8l-0.1,0l-0.1,0
			c-0.2,0.1-20,6.1-13.5,31.8c2.8,10.9,10.2,20,17.5,28.8c6.4,7.8,12.4,15.1,15,23.3c5.8,18.3,3.1,37.6-7.1,50.5
			c-10.9,13.7-11.2,19.3-11.3,19.6l0,0.6l0.6,0l47.9,1.2L119.9,402.8L119.9,402.8L119.9,402.8z M72.4,401L72.4,401
			c0-0.1,0.5-5.6,11-18.9c10.5-13.2,13.3-33,7.4-51.6c-2.7-8.4-8.8-15.8-15.2-23.7c-7.1-8.7-14.5-17.7-17.2-28.4
			c-6.2-24.5,11.9-30.1,12.7-30.3l-0.2,0l44.9,4.8l-0.4-1c-0.3,0.3-7.8,8.4-5,22.7c0.9,4.6,4.6,9.3,9.2,15.3
			c9.8,12.6,23.2,29.9,21.8,60.7c-2,44.5-21.5,50.9-21.7,51l0.2,0l-47.9-1.2L72.4,401L72.4,401z"/>
		<path class="st5" d="M74.5,245.9c-0.6,0.4-14.5,10.3-15,22.1c-0.3,8.6,1.1,19.8,22.9,44.8c20.4,23.5,11.2,52.3,7.9,60.5
			c-3,7.6-16.4,25.3-16.5,25.5l4.8,3.6c0.6-0.8,17.2-19.7,19.7-28.3c5.3-18.2,11.3-39.2-11.4-65.3c-22-25.3-20-35-19.7-40.8
			c0.3-7.3,10.9-18.5,14.2-20.9l-4.2-0.2L74.5,245.9L74.5,245.9z"/>
		<path class="st3" d="M103.6,251.5c-0.5,0.7-11.1,16.9,6.5,40.9c16.7,22.8,23.9,35,22.8,55.6c-1.2,21.3-11.2,41.9-15.3,47.1
			c-2.8,3.5-3,4.5-3.1,4.5c0,0,0,0,0.1,0l-2,2l2.5,0.2l3.9-0.3c0,0,16.5-6,19.9-53.2c1.7-23.8-6.5-37.6-22.7-59.7
			c-14.9-20.4-4.1-35.2-3.8-35.8L103.6,251.5L103.6,251.5z"/>
		<path class="st4" d="M89.8,249.9l-10.5-1.1c0,0-12.4,9.1-12.7,18.7c-0.3,9.7,1.5,21.1,23,44.7c21.4,23.6,9.4,57.1,8.2,60.1
			c-1.2,3-17.8,29.6-17.8,29.6l33,0.6c0,0,19.2-14.1,20.1-50c0.9-35.9-10.3-40.5-28-69.1c-9.7-15.6,0.8-31.9,0.8-31.9L89.8,249.9
			L89.8,249.9z"/>
		<path class="st6" d="M87.7,249.7c-0.4,0.4-10.4,9.7-6.8,22.4c3.1,10.9,13.2,27.1,19.2,36.8l2.1,3.4c6.3,10.3,9.2,17.6,9.9,25.3
			c0.8,8.5,1,19.8-4.1,31c-7,15.4-11.6,26.3-11.7,26.4l2.2,0.9c0-0.1,4.7-11,11.7-26.3c5.4-11.8,5.1-23.4,4.3-32.2
			c-0.9-9.9-5.5-18.5-10.2-26.3l-2.1-3.4c-6-9.6-15.9-25.6-18.9-36.2c-3.2-11.2,6-19.8,6.1-19.9L87.7,249.7L87.7,249.7z"/>
		<path class="st6" d="M91.7,249.1c-0.4,0.4-10.4,9.7-6.8,22.4c3.1,10.9,13.2,27.1,19.2,36.8l2.1,3.4c6.3,10.3,9.2,17.6,9.9,25.3
			c0.8,8.5,1,19.8-4.1,31c-7,15.4-11.6,26.3-11.7,26.4l2.2,0.9c0-0.1,4.7-11,11.7-26.3c5.4-11.8,5.1-23.4,4.3-32.2
			c-0.9-9.9-5.5-18.5-10.2-26.3l-2.1-3.4c-6-9.6-15.9-25.6-18.9-36.2c-3.2-11.2,6-19.8,6.1-19.9L91.7,249.1L91.7,249.1z"/>
		<path class="st1" d="M64.2,251c0,0,10.1-6,24.6,0.4c14.5,6.4,23.8,12.9,28.2,12.1c4.4-0.8,18.5-13.7,18.5-13.7l-36.6-18.1
			L64.2,251L64.2,251z"/>
		<path class="st2" d="M64.5,251.5L64.5,251.5c0.1-0.1,10-5.8,24,0.4c5.2,2.3,9.6,4.6,13.6,6.6c7.2,3.7,11.9,6.1,15,5.5
			c4.5-0.8,18.2-13.3,18.8-13.8l0.7-0.6l-0.8-0.4l-36.6-18.1l-0.3-0.1l-0.3,0.2l-34.6,19.3L64.5,251.5L64.5,251.5z M98.5,232.2
			l36.6,18.1l-0.1-1c-3.9,3.6-14.7,12.9-18.2,13.5c-2.6,0.5-7.5-2-14.2-5.4c-3.9-2-8.4-4.3-13.6-6.6c-14.6-6.5-24.7-0.6-25.1-0.4
			l0.6,1l34.6-19.3L98.5,232.2L98.5,232.2z"/>
		<path class="st5" d="M124.6,257.9c0,0-4,4.8-8.5,3.6c-4.4-1.2-18.5-9.3-25.8-12.5c-5-2.2-16.1-2.6-16.1-2.6l9.3-5.2
			c0,0,12.9,3,18.1,6.2c5.2,3.2,10.9,6.4,15.7,7.7C122.1,256.3,124.6,257.9,124.6,257.9L124.6,257.9z"/>
		<path class="st4" d="M98.6,232.3l-15.1,8.9c0,0,11.1,3.4,14.5,4.8c4.8,2,10.9,6,17.1,9.1c3,1.4,9.5,2.8,9.5,2.8l8.9-6.8
			L98.6,232.3L98.6,232.3z"/>
		<path class="st1" d="M120,261.4l37.8-26.6l-39.9-39c0,0-17.2,4.2-23.3,5.7c-6,1.5-9.7,13.3-7.2,19.6c2.4,6.3,18.1,14.2,23.6,18.4
			c5.4,4.2,8.8,9.1,9.1,13C120.3,256.6,120,261.4,120,261.4L120,261.4z"/>
		<path class="st2" d="M120.3,261.9l37.8-26.6l0.6-0.4l-0.5-0.5l-39.9-39l-0.2-0.2l-0.3,0.1l-23.3,5.7c-2.3,0.6-4.4,2.6-6,5.6
			c-2.5,4.7-3.1,10.8-1.6,14.8c1.8,4.7,10.2,10,17,14.2c2.8,1.7,5.2,3.3,6.8,4.5c5.2,4.1,8.5,8.8,8.8,12.6c0.3,3.8,0,8.6,0,8.7
			l-0.1,1.3L120.3,261.9L120.3,261.9z M120.6,252.6c-0.3-4.1-3.8-9.1-9.3-13.4c-1.6-1.3-4-2.8-6.9-4.5c-6.6-4.2-14.9-9.3-16.5-13.6
			c-1.4-3.6-0.7-9.4,1.6-13.8c1.4-2.7,3.3-4.5,5.3-5l23.3-5.7l-0.6-0.2l39.9,39l0.1-0.9l-37.8,26.6l1,0.5
			C120.6,261.4,120.9,256.6,120.6,252.6L120.6,252.6z"/>
		<path class="st5" d="M98.5,201.6c0,0-6,2.1-7.9,7.3c-1.8,5.1-2.4,13.3,7.9,19c10.3,5.7,21.7,12.1,24.2,16.9c2.4,4.8,3,12.1,3,12.1
			l4.5-3.3c0,0,2.4-7.6-7.2-15.1c-9.7-7.6-22-12.4-25.7-17.8c-3.6-5.4-2.7-9.1-1.5-12.4C97,205,98.5,201.6,98.5,201.6L98.5,201.6z"
			/>
		<path class="st4" d="M116.9,197.1l37.8,39l-24.5,17.5c0,0,1.8-10.6-16.3-21.1c-18.1-10.6-21.8-13.4-17.2-27.2
			C98.5,199.8,116.9,197.1,116.9,197.1L116.9,197.1z"/>
		<path class="st6" d="M107.6,202c-0.1,0.5-2.5,11.6,4.1,16.6c3.2,2.5,6.6,4.2,9.9,5.9c4.5,2.3,8.7,4.5,11.9,8.2
			c4.2,4.9,5.8,13.9,5.8,14l2-1.4c-0.1-0.4-1.4-8.8-6-14.2c-3.5-4.1-8-6.3-12.7-8.7c-3.2-1.6-6.5-3.3-9.6-5.6
			c-5.4-4.1-3.2-14.1-3.2-14.2L107.6,202L107.6,202z"/>
		<path class="st6" d="M111.1,200c-0.1,0.5-2.5,11.6,4.1,16.6c3.2,2.5,6.6,4.2,9.9,5.9c4.5,2.3,8.7,4.5,11.9,8.2
			c4.2,4.9,5.8,13.9,5.8,14l2-1.4c-0.1-0.4-1.4-8.8-6-14.2c-3.5-4.1-8-6.3-12.7-8.7c-3.2-1.6-6.5-3.3-9.6-5.6
			c-5.4-4.1-3.2-14.1-3.2-14.2L111.1,200L111.1,200z"/>
		<path class="st1" d="M208.8,274.7c0,0-36.9-22.4-44.7-28.4c-7.9-6-24.5-21.3-34.6-29.4c-12.2-10-18-12.2-24-13.4
			c-6-1.2-14.5,0-14.5,0s8.5-3,22.4-7.2c13.9-4.2,23-6.6,30.8-9.7c7.9-3,15.1,1.8,20.5,6.6c5.4,4.8,18.1,17.5,23,22.4
			c4.8,4.8,16.9,13.9,23.6,16.3c6.6,2.4,19.3,7.3,19.3,7.3L208.8,274.7L208.8,274.7z"/>
		<path class="st2" d="M209.1,274.2L209.1,274.2c-0.4-0.2-36.9-22.4-44.6-28.4c-4.2-3.3-11-9.1-18.1-15.3
			c-5.8-5.1-11.9-10.3-16.5-14.1c-11.9-9.7-17.7-12.3-24.3-13.6c-6.1-1.2-14.4-0.1-14.7,0l0.3,1.2c0.1,0,8.6-3.1,22.3-7.2l10.7-3.2
			c8.1-2.4,14.5-4.3,20.2-6.5c7.9-3,15.1,2.3,19.9,6.5c5.4,4.8,18.1,17.5,22.9,22.3c4.9,4.9,17.1,14,23.8,16.5
			c6.6,2.4,19.2,7.2,19.3,7.2l-0.3-0.9l-21.7,35.6L209.1,274.2L209.1,274.2z M230.7,238.5c-0.1,0-12.8-4.9-19.3-7.3
			c-6.5-2.4-18.5-11.3-23.3-16.2c-4.8-4.8-17.5-17.5-23-22.4c-5-4.5-12.7-10-21.2-6.8c-5.6,2.2-12,4.1-20.1,6.4l-10.7,3.2
			c-13.7,4.2-22.3,7.2-22.4,7.3L91,204c0.1,0,8.4-1.2,14.3,0c6.4,1.3,12,3.8,23.7,13.3c4.6,3.7,10.6,9,16.4,14.1
			c7.1,6.2,13.9,12.1,18.2,15.4c7.8,6,44.4,28.2,44.8,28.4l0.5,0.3l0.3-0.5l21.7-35.6l0.4-0.6L230.7,238.5L230.7,238.5z"/>
		<path class="st5" d="M209.8,271.9c0,0-34.4-20.9-45.9-30c-11.5-9.1-26-23.6-32.2-28.2c-6.2-4.6-18.1-11.3-21.5-12.3
			c-3.4-1-10.7-0.4-10.7-0.4l12.1-3.8c0,0,15.1,2.6,27.6,13.9c12.5,11.3,23.6,23,33,29c9.5,6,22.1,14.5,29.4,17.5
			c7.3,3,13.1,6.8,13.1,6.8L209.8,271.9L209.8,271.9z"/>
		<path class="st3" d="M137.5,189.2c0,0,6.2-3,8.7-2.8c2.4,0.2,14.9,6,28.8,20.1c13.9,14.1,23.6,20.9,29.4,24
			c5.8,3,24.4,10.5,24.4,10.5l-3.4,5.6c0,0-25.4-9.9-42.5-25.4c-17.1-15.5-22.8-23-29.6-27.4C146.3,189.4,137.5,189.2,137.5,189.2
			L137.5,189.2z"/>
		<path class="st4" d="M110.4,197.5c0,0,8.3-2.2,15.5-4.7c5.3-1.8,10.3-3.4,11.6-3.7c3-0.6,5-0.8,8.9,0.8
			c3.8,1.6,10.1,2.6,26.2,20.9c16.1,18.3,52.6,34.8,52.6,34.8L214,265.3c0,0-28.8-14.1-50.9-31.4c-22.2-17.3-24.6-25.6-36.9-30.8
			C113.9,197.8,110.4,197.5,110.4,197.5L110.4,197.5z"/>
		<path class="st6" d="M218.5,253.2L218.5,253.2c-0.2-0.1-22.4-7.2-43.3-23.8c-13.3-10.5-18.4-15.3-22.8-19.5
			c-2.7-2.5-5.3-5-9.4-8.3c-9.9-8.3-16.3-8.9-16.6-9l-2.4,0.9l-1.1,0.4c0.1,0,9.2,1.8,18.6,9.5c4,3.3,6.5,5.7,9.2,8.2
			c4.5,4.2,9.7,9,23,19.6c21.3,16.9,43.9,24.1,44.1,24.2L218.5,253.2L218.5,253.2z"/>
		<path class="st6" d="M223.2,251.4L223.2,251.4c-0.2-0.1-22.4-7.2-43.3-23.8c-13.3-10.5-18.4-15.3-22.8-19.5
			c-2.7-2.5-5.3-5-9.4-8.3c-9.9-8.3-16.3-8.9-16.6-9l-2.4,0.9l-1.1,0.4c0.1,0,9.2,1.8,18.6,9.5c4,3.3,6.5,5.7,9.2,8.2
			c4.5,4.2,9.7,9,23,19.6c21.3,16.9,43.9,24.1,44.1,24.2L223.2,251.4L223.2,251.4z"/>
		<path class="st1" d="M118.5,402.2l-29,1l-3-38.1c0,0,23.4-0.2,26.2-0.2c2.8,0,6,3.4,5.8,8.9c-0.2,5.4-7.7,10.5-8.3,17.3
			c-0.5,5.8,1.2,8.3,2.2,9.7C113.5,402.2,118.5,402.2,118.5,402.2L118.5,402.2z"/>
		<path class="st2" d="M118.5,401.6l-29,1l0.6,0.6l-3-38.1l-0.6,0.7l26.2-0.2c1,0,2.1,0.5,3,1.5c1.5,1.6,2.3,4,2.2,6.8
			c-0.1,2.4-1.8,4.9-3.6,7.5c-2.1,3-4.3,6.1-4.6,9.8c-0.5,6.1,1.3,8.7,2.3,10.1c1.1,1.6,5.6,1.7,6.5,1.7L118.5,401.6L118.5,401.6z
			 M113,400.4c-1-1.4-2.6-3.6-2.1-9.3c0.3-3.4,2.4-6.3,4.4-9.2c1.9-2.7,3.8-5.3,3.9-8.1c0.1-3-0.8-5.8-2.6-7.6
			c-1.1-1.2-2.5-1.8-3.9-1.8l-26.2,0.2l-0.6,0l0.1,0.6l3,38.1l0,0.6l0.6,0l29-1l0-1.2C116.6,401.6,113.6,401.2,113,400.4L113,400.4z
			"/>
		<path class="st3" d="M115.7,402.4l-29,1l-3-38.1c0,0,23.4-0.2,26.2-0.2c2.8,0,6,3.4,5.8,8.9c-0.2,5.4-7.7,10.5-8.3,17.3
			c-0.5,5.8,1.2,8.3,2.2,9.7C110.7,402.4,115.7,402.4,115.7,402.4L115.7,402.4z"/>
		<path class="st4" d="M107.9,402.6l-29,1l-3-38.1c0,0,23.4-0.2,26.2-0.2c2.8,0,6,3.4,5.8,8.9c-0.2,5.4-7.7,10.5-8.3,17.3
			c-0.5,5.8,1.2,8.3,2.2,9.7C102.8,402.6,107.9,402.6,107.9,402.6L107.9,402.6z"/>
		<path class="st1" d="M167.8,685.6c0,0,2.6,4.2,9.7,0.8c6.8-3.2,15.3-2.5,14.9,0.4c-0.6,5.2-3.6,12.9-3.6,12.9l-25-2.8L167.8,685.6
			L167.8,685.6z"/>
		<path class="st2" d="M167.3,685.9c0,0,3,4.6,10.4,1c5.5-2.6,11.7-2.4,13.5-1.1c0.6,0.4,0.5,0.8,0.5,0.9
			c-0.6,5.1-3.6,12.7-3.6,12.7l0.6-0.4l-25-2.8l0.5,0.8l4-11.3L167.3,685.9L167.3,685.9z M163.7,697.5l25,2.8l0.5,0.1l0.2-0.4
			c0.1-0.3,3-7.8,3.7-13c0.1-0.5-0.1-1.3-1-2c-2.4-1.7-9.2-1.7-14.8,1c-6.5,3.1-8.8-0.4-8.9-0.6l-0.7-1c0,0-0.4,1.2-0.4,1.2l-4,11.3
			l-0.3,0.7L163.7,697.5L163.7,697.5z"/>
		<path class="st3" d="M166.3,689.7c0,0,2.6,4.2,9.7,0.8c6.8-3.2,15.3-2.5,14.9,0.4c-0.6,5.2-3.6,12.9-3.6,12.9l-25-2.8L166.3,689.7
			L166.3,689.7z"/>
		<path class="st1" d="M111.5,365.6l-56.4-0.2l-2.2,0c0,0-11.3,11.7-10.7,33.6c0.6,22,2.6,30.8,9.3,50.1c6.6,19.3,9.3,31.2,9.5,43.7
			c0.2,12.5-2.6,40.5-4.4,57.2c-1.8,16.7-5,49.1-4.4,61.4c0.6,12.3,1.6,34.6,13.5,52.2c11.9,17.5,22.4,21.8,28.4,26.2
			c6,4.4,15.5,13.9,22.4,20.7c6.8,6.8,17.9,18.9,28.2,21.9c10.3,3,20.7,3.4,25.2,2.2c4.4-1.2,9.9-5.8,11.9-11.7
			c2-5.8,6.8-20.3,8.5-26c1.6-5.6,2.2-9.7,2.2-9.7c0,0-1.2,2.8-9.7,4.6c-8.5,1.8-19.1-6.4-25.2-13.3c-6-6.8-31.2-24.2-39.3-31.2
			c-8.1-7-15.3-14.7-15.3-32.6c0-17.9,1.4-52.6,3.6-66.3c2.2-13.7,5-36.2,5.2-50.5c0.2-14.3-1.2-39.7-7.9-57.8
			c-6.6-18.1-10.1-34.8-10.1-44.1c0-9.3,1.7-19.2,4.8-22.8C103.8,367.6,111.5,365.6,111.5,365.6L111.5,365.6z"/>
		<path class="st2" d="M111.5,364.9l-56.4-0.2l-2.2,0h-0.3l-0.2,0.2C52.3,365,41,377,41.6,399c0.6,22,2.6,30.9,9.3,50.3
			c6.7,19.4,9.2,31.2,9.4,43.5c0.2,11.7-2.3,37.5-4.4,57.1c-1.5,14.2-5.1,48.7-4.4,61.5l0,0.3c0.6,12.1,1.7,34.6,13.6,52.2
			c9.6,14.2,18.2,19.7,24.5,23.7c1.5,1,2.8,1.8,4,2.7c6,4.4,15.4,13.8,22.3,20.7l2.2,2.3c7.1,7.2,16.8,17.1,26.2,19.8
			c10.5,3.1,21,3.5,25.5,2.2c4.4-1.2,10.1-5.8,12.3-12.1c2.1-6.1,6.9-20.4,8.5-26c1.6-5.6,2.2-9.7,2.2-9.7l-1.2-0.3
			c0,0-1.3,2.6-9.2,4.3c-7.6,1.6-17.8-5.4-24.6-13.1c-3.7-4.2-14.4-12.2-23.9-19.3c-6.3-4.7-12.2-9.2-15.4-12
			c-8.3-7.2-15.1-14.6-15.1-32.2c0-17.9,1.4-52.5,3.6-66.2c2.4-14.8,5.1-36.9,5.2-50.6c0.2-17-1.7-41.1-7.9-58
			c-6.1-16.6-10-33.8-10-43.9c0-10.1,1.9-19.3,4.7-22.4c5-5.6,12.5-7.7,12.6-7.7L111.5,364.9L111.5,364.9z M98.2,373
			c-3.4,3.8-5,14.4-5,23.2c0,10.2,4,27.6,10.1,44.3c6.1,16.7,8.1,40.7,7.8,57.6c-0.2,13.6-2.8,35.7-5.2,50.5
			c-2.2,13.7-3.6,48.4-3.6,66.3c0,18,7.3,25.9,15.5,33.1c3.2,2.8,9.2,7.3,15.5,12c9.4,7.1,20.1,15.1,23.7,19.1
			c6.5,7.4,17.1,15.3,25.8,13.5c8.5-1.8,10-4.7,10.1-5l-1.2-0.3c0,0-0.6,4.1-2.2,9.6c-1.6,5.6-6.3,19.8-8.4,25.9
			c-2,5.9-7.4,10.2-11.5,11.3c-4.4,1.2-14.9,0.7-24.8-2.2c-9.1-2.7-19.1-12.8-25.7-19.5l-2.3-2.3c-6.9-6.9-16.3-16.3-22.4-20.8
			c-1.2-0.9-2.6-1.8-4.1-2.7c-6.2-3.9-14.7-9.3-24.2-23.3c-11.7-17.2-12.8-39.5-13.4-51.5l0-0.3c-0.6-12.7,2.9-47.1,4.4-61.3
			c2.1-19.6,4.6-45.5,4.4-57.3c-0.2-12.4-2.8-24.3-9.5-43.9c-6.6-19.2-8.6-28.1-9.2-50c-0.6-21.5,10.4-33.1,10.5-33.2l-0.4,0.2
			l2.2,0c0,0,56.4,0.2,56.4,0.2l-0.2-1.2C111,365.1,103.5,367.1,98.2,373L98.2,373z"/>
		<path class="st5" d="M55.1,365.4c0,0-10.1,10.9-10.3,33c-0.2,22.2,4.2,36.7,7.2,45.5c3,8.9,9.9,26,11.1,34.4
			c1.2,8.5,1.4,34.2-1.2,51.8c-2.6,17.5-5.8,43.9-6.2,57c-0.4,13.1-3.2,39.9,3,53.8c6.2,13.9,8.9,22.1,15.7,29.4
			c6.8,7.2,8.7,8.7,17.7,14.7c9.1,6,16.5,14.1,24.6,22.8c8.1,8.7,17.5,17.3,28.2,21.5c10.7,4.2,18.7,3.6,24,2.8
			c5.2-0.8,7.9-2.4,9.7-4.6c1.8-2.2,3.2-6.4,3.2-6.4s-14.9,7-23,3.4c-8.1-3.6-13.9,0.2-36.8-22.2c-23-22.3-47.5-46.7-47.5-46.7
			l-10.1-48.3l3.2-45.7l5.6-34l-3-61.6l-9.9-26.8l-5.2-37.7l8.9-35.6l-4.8-0.2L55.1,365.4L55.1,365.4z"/>
		<path class="st3" d="M103.4,366.2c0,0-10.9,6.4-11.3,23.2c-0.4,16.7,2.6,34.2,8.3,48.3c5.6,14.1,7.4,23.6,8.1,34
			c0.6,10.5-0.4,43.5-2.6,58c-2.2,14.5-4.8,38.9-5.4,50.7c-0.6,11.9-1.6,35.6,1,46.3c2.6,10.7,5.2,16.5,18.9,27
			c13.7,10.5,24.2,16.3,31.6,24.4c7.5,8.1,15.3,13.9,19.5,16.3c4.2,2.4,11.7,2.4,14.9,0.8c3.2-1.6,4.4-3.4,4.4-3.4l-3.4,11.3
			l-20.1,0.6l-58.4-44.1L95,639l-6.6-38.5l7-67.7l1.2-44.5l-9.7-62l-6.2-31.6l8.3-25.6l3.2-3.4L103.4,366.2L103.4,366.2z"/>
		<path class="st4" d="M181.4,722.1c0,0-18.6,10.4-35.7-0.1c-17.1-10.5-34.8-29-45.5-37.9c-10.7-8.9-18.1-12.5-26.4-25.4
			c-8.3-12.9-14.7-36-13.1-53.2c1.6-17.1,3.6-32.6,5.2-50.1c1.6-17.5,4.4-40.3,4.4-52.2s-1-30.6-6.2-45.7
			c-5.2-15.1-10.7-24.8-11.9-44.3c-1.2-19.5,0.4-27.4,1.6-33.2c1.2-5.8,8.7-14.1,8.7-14.1h33c0,0-10.7,9.5-10.7,22.6
			c0,13.1,0,20.3,8.1,46.5c8.1,26.2,10.3,44.7,9.3,60.6c-1,15.9-4.8,41.5-7,61.4c-2.2,19.9-3,30-3,41.9c0,11.9,1.4,23.8,5.6,35.6
			c4.2,11.8,15.5,23.4,26.6,30.1c11.1,6.6,18.3,13.3,23,18.3c4.6,5,17.5,15.9,23.8,18.7c8.1,3.7,17.6-1.9,17.6-1.9L181.4,722.1
			L181.4,722.1z"/>
		<path class="st6" d="M182.6,716.9l0.4-0.8l0.8-2.5l-2.5,0.9c-0.1,0-5.9,2.3-10.2,2.7c-8.1,0.9-20.5-2.6-33-16
			c-13.1-14.1-24-23.9-28.6-27.2c-6.8-4.7-21-16.3-26.2-26.2c-5.8-11-7.9-32.7-7.1-43.4c0.7-9.3,2.9-32.2,4.1-44.6l0.6-5.8l1.2-11.3
			c1.5-13.5,3.7-33.9,3.8-41.1c0.2-8.6-1.2-34.8-9.4-53.1c-7.8-17.4-9.1-46.9-8.2-53.9c1-7.6,4.2-19.4,5.1-21.8
			c0.9-2.3,4.5-6.4,4.5-6.4l-3.1-0.1c-0.1,0.1-2.4,2.8-3.5,5.6c-1.1,2.9-4.4,15-5.4,22.3c-1.1,8.2,0.5,37.6,8.4,55.2
			c8,17.9,9.3,43.6,9.2,52c-0.1,7.2-2.4,27.5-3.8,40.9l-1.2,11.3l-0.6,5.7c-1.2,12.3-3.4,35.3-4.1,44.6c-0.8,11,1.4,33.3,7.4,44.8
			c6.8,12.9,26.8,26.9,27,27c4.5,3.1,15.3,12.9,28.2,26.8c12.8,13.8,26.8,17.4,35.1,16.5c4.9-0.5,10.8-2.6,11.1-2.8l-1.7-1.6
			l-0.4,0.8L182.6,716.9L182.6,716.9z"/>
		<path class="st6" d="M184.2,712.5l0.9-2.4l-4.8,1.8c-0.1,0-3.5,1.1-7.8,1.3c-4.5,0.2-16.7,0.7-29.2-12.8
			c-13.1-14.1-23.6-23.5-28.2-26.7c-6.8-4.7-21.5-16.1-26.7-26c-5.8-11-8.8-32.3-8.1-43.1c0.7-9.3,2.9-32.2,4.1-44.6l0.6-5.7
			l1.2-11.3c1.5-13.5,3.7-33.9,3.8-41.1c0.2-8.6-1.2-34.8-9.4-53.1c-7.8-17.4-9.1-46.9-8.2-53.9c1-7.6,4.2-19.4,5.1-21.8
			c0.9-2.3,4.5-6.4,4.5-6.4l-3.1-0.1c-0.1,0.1-2.4,2.8-3.5,5.6c-1.1,2.9-4.4,15-5.4,22.3c-1.1,8.2,0.5,37.6,8.4,55.2
			c8,17.9,9.3,43.6,9.2,52c-0.1,7.2-2.4,27.5-3.8,40.9l-1.2,11.3l-0.6,5.7c-1.2,12.3-3.4,35.3-4.1,44.6c-0.8,11,2,33.1,8.1,44.5
			c6.8,12.9,27.9,26.8,28.1,27c4.5,3.1,14.6,12.2,27.5,26.2c12.8,13.8,25.5,13.7,31.1,13.5C177.7,715.4,184.2,712.5,184.2,712.5
			L184.2,712.5z"/>
		<path class="st5" d="M329.7,674c0,0-7.5-0.5-12,1.7c-3.9,1.8-7.4,4.7-7.7,6.3c-0.3,1.6,0,52,0,52l19.7-8.4V674L329.7,674z"/>
		<path class="st2" d="M329.7,673.4c-0.3,0-7.7-0.4-12.3,1.7c-4.1,1.9-7.7,4.9-8,6.7c-0.3,1.6,0,46.9,0,52.1l0,0.9l0.8-0.4l19.7-8.4
			l0.4-0.2v-0.4V674v-0.6L329.7,673.4L329.7,673.4z M329.4,725l-19.7,8.4l0.8,0.6c-0.1-20.1-0.2-50.5,0-51.8
			c0.2-1.2,3.5-4.1,7.4-5.9c4.4-2,11.7-1.6,11.7-1.6l-0.6-0.6v51.5L329.4,725L329.4,725z"/>
		<path class="st1" d="M329,682.1c0,0-6.1-0.3-9.2,0.6c-5.8,1.6-7.6,7-7.6,7l8.9,3l7.8-1.4L329,682.1L329,682.1z"/>
		<path class="st5" d="M433.7,691.2c0,0,0.9-6-1.8-12.4c-2.7-6.3-12.5-10.6-26.9-11.3c-14.3-0.8-53.6,20.2-73.7,24.3
			c-20.1,4.1-21.4-7.6-21.4-7.6l0,51.8c0,0,1.4,11.7,21.4,7.6c20.1-4.1,59.4-25.1,73.7-24.3c14.3,0.8,21.1,7.6,26.9,11.3
			c3.4,2.2,2.2-0.4,2.2-0.4L433.7,691.2L433.7,691.2z"/>
		<path class="st2" d="M434.3,691.3c0-0.3,0.9-6.3-1.9-12.7c-2.9-6.7-12.8-10.9-27.4-11.7c-8.2-0.4-23.7,5.8-40.1,12.5
			c-12.3,5-25,10.1-33.8,11.9c-7.7,1.6-13.4,1-17.1-1.7c-3.2-2.3-3.6-5.4-3.6-5.4l-1.2,0.1l0,51.8v0l0,0c0,0.1,0.5,3.6,4.1,6.2
			c4,2.9,10.1,3.5,18.1,1.9c8.9-1.8,21.6-7,34-11.9c15.6-6.3,31.7-12.8,39.6-12.4c11.8,0.6,18.3,5.3,23.5,9.1c1.1,0.8,2.1,1.5,3,2.1
			c1.6,1,2.5,1.2,3,0.8c0.6-0.5,0.2-1.6,0.1-1.9l0.1,0.2L434.3,691.3L434.3,691.3L434.3,691.3z M433.5,730.5L433.5,730.5
			c0.1,0.2,0.2,0.5,0.1,0.6c0-0.1,0.1-0.2,0.2-0.2c0,0-0.4,0-1.7-0.8c-1-0.6-2-1.3-3-2.1c-5.4-3.9-12.1-8.7-24.2-9.3
			c-8.2-0.4-23.7,5.8-40.1,12.5c-12.3,5-25,10.1-33.8,11.9c-7.7,1.6-13.4,1-17.1-1.7c-3.2-2.3-3.6-5.4-3.6-5.4l0,0.1l0-51.8
			l-1.2,0.1c0,0.1,0.5,3.6,4.1,6.2c4,2.9,10.1,3.5,18.1,1.9c8.9-1.8,21.6-7,34-11.9c15.6-6.3,31.7-12.8,39.6-12.4
			c13.9,0.7,23.7,4.8,26.4,11c2.6,6.1,1.8,12,1.8,12.1l0,0v0l0.4,39l0,0.1L433.5,730.5L433.5,730.5z"/>
		<path class="st1" d="M434.6,694.9c0,0,0.8-1.4-2-8.1c-2.7-6.7-12.5-11.1-26.9-11.9c-14.3-0.8-53.6,21.3-73.7,25.6
			c-20.1,4.3-21.4-8-21.4-8v35.1c0,0,1.4,12.3,21.4,8c20.1-4.3,61.2-25.6,73.7-25.6c14.4,0,24.2,5.2,26.9,11.9c2.7,6.7,2,8.1,2,8.1
			V694.9L434.6,694.9z"/>
		<path class="st5" d="M481.2,402.2c0,0-20.1-6-22.2-51.5c-2-45.5,28.2-62,31-76.1c2.8-14.1-4.8-22.2-4.8-22.2l44.9-4.8
			c0,0,19.5,5.6,13.1,31.1c-5.1,20.3-26.8,34.4-32.5,52.1c-5.6,17.7-3.6,37.4,7.2,51c10.9,13.7,11.1,19.2,11.1,19.2L481.2,402.2
			L481.2,402.2z"/>
		<path class="st2" d="M481.3,401.6L481.3,401.6c-0.2-0.1-19.8-6.5-21.7-51c-1.4-30.8,12-48.1,21.8-60.7c4.6-6,8.3-10.7,9.2-15.3
			c2.8-14.2-4.7-22.3-5-22.7l-0.4,1l44.9-4.8l-0.2,0c0.8,0.2,18.9,5.8,12.7,30.3c-2.7,10.7-10.1,19.6-17.2,28.4
			c-6.5,7.9-12.6,15.3-15.2,23.7c-5.9,18.6-3.1,38.4,7.4,51.6c10.5,13.3,11,18.8,11,18.9l0.6-0.6l-47.9,1.2L481.3,401.6L481.3,401.6
			z M529.7,401c0-0.2-0.4-5.9-11.3-19.6c-10.2-12.9-13-32.2-7.1-50.5c2.6-8.2,8.6-15.5,15-23.3c7.2-8.8,14.7-17.9,17.5-28.8
			c6.5-25.7-13.3-31.7-13.5-31.8l-0.1,0l-0.1,0l-44.9,4.8l-1.2,0.1l0.8,0.9c0.1,0.1,7.4,8,4.7,21.6c-0.9,4.3-4.4,9-9,14.8
			c-9.9,12.8-23.4,30.2-22.1,61.5c1,23.7,7.1,36.5,11.9,43.2c5.3,7.3,10.4,8.9,10.6,8.9l0.1,0l0.1,0l47.9-1.2l0.6,0L529.7,401
			L529.7,401z"/>
		<path class="st1" d="M511.1,249.9l10.5-1.1c0,0,12.4,9.1,12.7,18.7c0.3,9.7-1.5,21.1-23,44.7c-21.4,23.6-9.4,57.1-8.2,60.1
			c1.2,3,17.8,29.6,17.8,29.6l-33,0.6c0,0-19.2-14.1-20.1-50c-0.9-35.9,10.3-40.5,28-69.1c9.7-15.6-0.8-31.9-0.8-31.9L511.1,249.9
			L511.1,249.9z"/>
		<path class="st5" d="M536.8,251c0,0-10.1-6-24.6,0.4c-14.5,6.4-23.8,12.9-28.2,12.1c-4.4-0.8-18.5-13.7-18.5-13.7l36.6-18.1
			L536.8,251L536.8,251z"/>
		<path class="st2" d="M537.1,250.5c-0.4-0.3-10.5-6.1-25.1,0.4c-5.2,2.3-9.7,4.6-13.6,6.6c-6.7,3.4-11.6,5.9-14.2,5.4
			c-3.5-0.6-14.3-10-18.2-13.5l-0.1,1l36.6-18.1l-0.6,0l34.6,19.3L537.1,250.5L537.1,250.5z M501.9,231.1l-36.6,18.1l-0.8,0.4
			l0.7,0.6c0.6,0.5,14.3,13,18.8,13.8c3,0.6,7.8-1.9,15-5.5c3.9-2,8.4-4.3,13.6-6.6c14-6.2,23.9-0.5,24-0.4l-0.1,0l0.7-1l-34.6-19.3
			l-0.3-0.2L501.9,231.1L501.9,231.1z"/>
		<path class="st1" d="M502.3,232.3l15.1,8.9c0,0-11.1,3.4-14.5,4.8c-4.8,2-10.9,6-17.1,9.1c-3,1.4-9.5,2.8-9.5,2.8l-8.9-6.8
			L502.3,232.3L502.3,232.3z"/>
		<path class="st5" d="M481,261.4l-37.8-26.6l39.9-39c0,0,17.2,4.2,23.3,5.7c6,1.5,9.7,13.3,7.3,19.6c-2.4,6.3-18.1,14.2-23.6,18.4
			c-5.4,4.2-8.8,9.1-9.1,13C480.7,256.6,481,261.4,481,261.4L481,261.4z"/>
		<path class="st2" d="M481.3,260.9l-37.8-26.6l0.1,0.9l39.9-39l-0.6,0.2l23.3,5.7c2,0.5,3.8,2.3,5.3,5c2.3,4.4,3,10.2,1.6,13.8
			c-1.6,4.3-9.9,9.5-16.5,13.6c-2.8,1.8-5.2,3.3-6.9,4.5c-5.5,4.3-9,9.3-9.3,13.4c-0.3,3.9,0,8.8,0,8.8L481.3,260.9L481.3,260.9z
			 M481.6,252.7c0.3-3.8,3.6-8.5,8.8-12.6c1.6-1.2,4-2.7,6.8-4.5c6.8-4.3,15.2-9.5,17-14.2c1.5-4,0.8-10.1-1.6-14.8
			c-1.6-3.1-3.7-5-6-5.6l-23.3-5.7l-0.3-0.1c0,0-0.2,0.2-0.2,0.2l-39.9,39l-0.5,0.5l0.6,0.4l37.8,26.6l1,0.7l-0.1-1.3
			C481.6,261.4,481.3,256.6,481.6,252.7L481.6,252.7z"/>
		<path class="st1" d="M484,197.1l-37.8,39l24.5,17.5c0,0-1.8-10.6,16.3-21.1c18.1-10.6,21.8-13.4,17.2-27.2
			C502.4,199.8,484,197.1,484,197.1L484,197.1z"/>
		<path class="st5" d="M392.2,274.7c0,0,36.9-22.4,44.7-28.4c7.9-6,24.5-21.3,34.6-29.4c12.2-10,18-12.2,24-13.4
			c6-1.2,14.5,0,14.5,0s-8.5-3-22.4-7.2c-13.9-4.2-23-6.6-30.8-9.7c-7.9-3-15.1,1.8-20.5,6.6c-5.4,4.8-18.1,17.5-23,22.4
			c-4.8,4.8-16.9,13.9-23.6,16.3c-6.6,2.4-19.3,7.3-19.3,7.3L392.2,274.7L392.2,274.7z"/>
		<path class="st2" d="M392.5,275.3c0.4-0.2,37-22.4,44.8-28.4c4.3-3.3,11-9.2,18.2-15.4c5.8-5.1,11.9-10.3,16.4-14.1
			c11.7-9.5,17.4-12,23.8-13.3c5.9-1.2,14.2,0,14.3,0l0.3-1.2c-0.1,0-8.6-3.1-22.4-7.3l-10.7-3.2c-8.1-2.4-14.5-4.3-20.1-6.4
			c-8.5-3.3-16.1,2.3-21.2,6.8c-5.5,4.8-18.2,17.6-23,22.4c-4.9,4.9-16.8,13.8-23.3,16.2c-6.6,2.4-19.2,7.2-19.3,7.3l-0.7,0.3
			l0.4,0.6l21.7,35.6l0.3,0.5L392.5,275.3L392.5,275.3z M370.6,239.7L370.6,239.7c0.1,0,12.8-4.9,19.3-7.2
			c6.7-2.4,18.8-11.5,23.8-16.5c4.8-4.8,17.5-17.5,22.9-22.3c4.8-4.3,12.1-9.6,19.9-6.5c5.7,2.2,12.1,4.1,20.2,6.5l10.7,3.2
			c13.7,4.2,22.2,7.2,22.3,7.2l0.3-1.2c-0.3,0-8.6-1.2-14.7,0c-6.6,1.3-12.4,3.9-24.3,13.6c-4.6,3.7-10.6,9-16.5,14.1
			c-7.1,6.2-13.8,12.1-18.1,15.3c-7.7,6-44.3,28.1-44.6,28.4l0.8,0.2l-21.7-35.6L370.6,239.7L370.6,239.7z"/>
		<path class="st1" d="M490.5,197.5c0,0-8.3-2.2-15.5-4.7c-5.3-1.8-10.3-3.4-11.6-3.7c-3-0.6-5-0.8-8.9,0.8
			c-3.8,1.6-10.1,2.6-26.2,20.9c-16.1,18.3-52.6,34.8-52.6,34.8l11.1,19.5c0,0,28.8-14.1,50.9-31.4c22.2-17.3,24.6-25.6,36.8-30.8
			C487,197.8,490.5,197.5,490.5,197.5L490.5,197.5z"/>
		<path class="st5" d="M482.4,402.2l29,1l3-38.1c0,0-23.4-0.2-26.2-0.2c-2.8,0-6,3.4-5.8,8.9c0.2,5.4,7.7,10.5,8.3,17.3
			c0.5,5.8-1.2,8.3-2.2,9.7C487.4,402.2,482.4,402.2,482.4,402.2L482.4,402.2z"/>
		<path class="st2" d="M482.3,402.8l29,1l0.6,0l0-0.6l3-38.1l0.1-0.6l-0.6,0l-26.2-0.2c-1.4,0-2.7,0.7-3.9,1.8
			c-1.7,1.8-2.7,4.6-2.6,7.6c0.1,2.8,1.9,5.4,3.9,8.1c2,2.9,4.1,5.8,4.4,9.2c0.5,5.6-1.1,7.9-2.1,9.3c-0.6,0.8-3.6,1.2-5.5,1.2
			L482.3,402.8L482.3,402.8z M488.9,401.1c1-1.4,2.9-4,2.3-10.1c-0.3-3.7-2.5-6.8-4.6-9.8c-1.8-2.6-3.6-5.1-3.6-7.5
			c-0.1-2.7,0.7-5.2,2.2-6.8c0.9-0.9,2-1.5,3-1.5l26.2,0.2l-0.6-0.7l-3,38.1l0.6-0.6l-29-1l0,1.2
			C483.3,402.8,487.8,402.7,488.9,401.1L488.9,401.1z"/>
		<path class="st1" d="M493,402.6l29,1l3-38.1c0,0-23.4-0.2-26.2-0.2c-2.8,0-6,3.4-5.8,8.9c0.2,5.4,7.7,10.5,8.3,17.3
			c0.5,5.8-1.2,8.3-2.2,9.7C498.1,402.6,493,402.6,493,402.6L493,402.6z"/>
		<path class="st5" d="M433.1,685.6c0,0-2.6,4.2-9.7,0.8c-6.8-3.2-15.3-2.5-14.9,0.4c0.6,5.2,3.6,12.9,3.6,12.9l25-2.8L433.1,685.6
			L433.1,685.6z"/>
		<path class="st2" d="M432.6,685.3L432.6,685.3c-0.1,0.1-2.4,3.6-8.9,0.6c-5.6-2.6-12.4-2.7-14.8-1c-0.9,0.7-1.1,1.5-1,2
			c0.6,5.2,3.5,12.7,3.7,13l0.2,0.4l0.5-0.1l25-2.8l0.8-0.1l-0.3-0.7l-4-11.3l-0.4-1.2L432.6,685.3L432.6,685.3z M437.1,696.3
			l-25,2.8l0.6,0.4c0-0.1-3-7.7-3.6-12.7c0-0.1-0.1-0.5,0.5-0.9c1.8-1.3,8-1.5,13.5,1.1c7.5,3.5,10.4-1,10.4-1l-1.1-0.1l4,11.3
			L437.1,696.3L437.1,696.3z"/>
		<path class="st5" d="M489.4,365.6l56.4-0.2l2.2,0c0,0,11.3,11.7,10.7,33.6c-0.6,22-2.6,30.8-9.3,50.1c-6.6,19.3-9.3,31.2-9.5,43.7
			c-0.2,12.5,2.6,40.5,4.4,57.2s5,49.1,4.4,61.4c-0.6,12.3-1.6,34.6-13.5,52.2c-11.9,17.5-22.4,21.8-28.4,26.2
			c-6,4.4-15.5,13.9-22.4,20.7c-6.8,6.8-17.9,18.9-28.2,21.9c-10.3,3-20.7,3.4-25.2,2.2c-4.4-1.2-9.9-5.8-11.9-11.7
			c-2-5.8-6.8-20.3-8.5-26c-1.6-5.6-2.2-9.7-2.2-9.7s1.2,2.8,9.7,4.6c8.5,1.8,19.1-6.4,25.2-13.3c6-6.8,31.2-24.2,39.3-31.2
			c8.1-7,15.3-14.7,15.3-32.6c0-17.9-1.4-52.6-3.6-66.3c-2.2-13.7-5-36.2-5.2-50.5c-0.2-14.3,1.2-39.7,7.9-57.8
			c6.6-18.1,10.1-34.8,10.1-44.1c0-9.3-1.7-19.2-4.8-22.8C497.1,367.6,489.4,365.6,489.4,365.6L489.4,365.6z"/>
		<path class="st2" d="M489.4,366.2l56.4-0.2l2.2,0l-0.4-0.2c0.1,0.1,11.1,11.8,10.5,33.2c-0.6,21.8-2.6,30.7-9.2,50
			c-6.7,19.6-9.3,31.5-9.5,43.9c-0.2,11.8,2.3,37.6,4.4,57.3c1.5,14.2,5.1,48.6,4.4,61.3l0,0.3c-0.6,12-1.7,34.3-13.4,51.5
			c-9.5,14-18,19.4-24.2,23.3c-1.5,0.9-2.9,1.8-4.1,2.7c-6.1,4.5-15.5,13.9-22.4,20.8l-2.3,2.3c-6.6,6.7-16.6,16.9-25.7,19.5
			c-9.9,2.9-20.4,3.4-24.8,2.2c-4.1-1.1-9.4-5.4-11.5-11.3c-2.1-6.1-6.9-20.4-8.4-25.9c-1.6-5.5-2.2-9.5-2.2-9.6l-1.2,0.3
			c0.1,0.3,1.6,3.2,10.1,5c8.6,1.8,19.2-6.1,25.7-13.5c3.6-4.1,14.3-12.1,23.7-19.1c6.3-4.7,12.3-9.2,15.5-12
			c8.2-7.2,15.5-15.1,15.5-33.1c0-17.9-1.4-52.6-3.6-66.3c-2.4-14.7-5-36.8-5.2-50.5c-0.2-16.9,1.7-40.9,7.8-57.6
			c6.1-16.7,10.1-34.1,10.1-44.3c0-8.8-1.5-19.3-5-23.2c-5.3-5.9-12.9-8-13.2-8L489.4,366.2L489.4,366.2z M501.9,373.8
			c2.8,3.1,4.7,12.3,4.7,22.4c0,10-3.9,27.3-10,43.9c-6.2,16.9-8.1,41-7.9,58c0.2,13.7,2.9,35.9,5.2,50.6
			c2.2,13.7,3.6,48.3,3.6,66.2c0,17.5-6.8,24.9-15.1,32.2c-3.2,2.8-9.1,7.2-15.4,12c-9.5,7.1-20.2,15.1-23.9,19.3
			c-6.8,7.7-17,14.7-24.6,13.1c-7.9-1.7-9.2-4.3-9.2-4.3l-1.1,0.3c0,0,0.6,4.1,2.2,9.7c1.6,5.6,6.4,19.9,8.5,26
			c2.2,6.2,7.9,10.9,12.3,12.1c4.5,1.2,15,0.9,25.5-2.2c9.4-2.8,19.1-12.6,26.2-19.8l2.2-2.3c6.9-6.9,16.3-16.3,22.3-20.7
			c1.2-0.9,2.5-1.7,4-2.7c6.3-4,14.9-9.5,24.5-23.7c11.9-17.5,13-40.1,13.6-52.2l0-0.3c0.6-12.8-2.9-47.3-4.4-61.5
			c-2.1-19.6-4.6-45.4-4.4-57.1c0.2-12.3,2.8-24.1,9.4-43.5c6.7-19.4,8.7-28.3,9.3-50.3c0.6-21.9-10.7-33.9-10.8-34.1l-0.2-0.2H548
			l-2.2,0l-56.4,0.2l-0.2,1.2C489.3,366.2,496.8,368.2,501.9,373.8L501.9,373.8z"/>
		<path class="st1" d="M419.5,722.1c0,0,18.6,10.4,35.7-0.1c17.1-10.5,34.8-29,45.5-37.9c10.7-8.9,18.1-12.5,26.4-25.4
			c8.3-12.9,14.7-36,13.1-53.2c-1.6-17.1-3.6-32.6-5.2-50.1c-1.6-17.5-4.4-40.3-4.4-52.2s1-30.6,6.2-45.7
			c5.2-15.1,10.7-24.8,11.9-44.3c1.2-19.5-0.4-27.4-1.6-33.2c-1.2-5.8-8.7-14.1-8.7-14.1h-33c0,0,10.7,9.5,10.7,22.6
			c0,13.1,0,20.3-8.1,46.5c-8.1,26.2-10.3,44.7-9.3,60.6c1,15.9,4.8,41.5,7,61.4c2.2,19.9,3,30,3,41.9c0,11.9-1.4,23.8-5.6,35.6
			c-4.2,11.8-15.5,23.4-26.6,30.1c-11.1,6.6-18.3,13.3-23,18.3c-4.6,5-17.5,15.9-23.8,18.7c-8.1,3.7-17.6-1.9-17.6-1.9L419.5,722.1
			L419.5,722.1z"/>
		<path class="st3" d="M132.3,257.2c0,0,0,338.9,0,351.6c0,12.8,7.8,33.1,28.7,33.1h107.8c15.2,0,29.7,20.1,31.5,32.2h0.2
			c1.8-12,16.4-32.2,31.5-32.2h107.8c20.9,0,28.7-20.4,28.7-33.1c0-12.8,0-351.6,0-351.6L132.3,257.2L132.3,257.2z"/>
		<path class="st2" d="M131.8,257.2v351.6c0,13,7.9,33.6,29.2,33.6h107.8c14.5,0,29.2,19.2,31.1,31.8l0.1,0.4h0.4h0.2h0.4l0.1-0.4
			c1.9-12.5,16.5-31.8,31.1-31.8h107.8c21.2,0,29.1-20.6,29.1-33.6V257.2v-0.5h-0.5H132.3h-0.5V257.2L131.8,257.2z M468.1,257.2
			v351.6c0,12.6-7.7,32.7-28.2,32.7H332.1c-15,0-30.1,19.7-32,32.5l0.5-0.4h-0.2l0.5,0.4c-1.9-12.9-17-32.5-32-32.5H161
			c-20.6,0-28.2-20-28.2-32.7V257.2l-0.5,0.5h336.3L468.1,257.2L468.1,257.2z"/>
		<path class="st1" d="M144.7,464.4l11.7-11.7l12,12l11.8-11.7l11.9,11.9l12.1-12l12.3,12.2l12-12l12.2,12.1l12.3-12.3h95.6
			l12.3,12.3l12.2-12.1l12,12l12.3-12.2l12.1,12l11.9-11.9l11.8,11.7l12-12l11.7,11.7l11.9-11.9c0-94,0-195.4,0-195.4l-336.3,0
			c0,0,0,101,0,194.8L144.7,464.4L144.7,464.4z"/>
		<path class="st2" d="M145.1,464.7l11.7-11.7h-0.7l12,12l0.3,0.3l0.3-0.3l11.8-11.7h-0.7l11.9,11.9l0.3,0.3l0.3-0.3l12.1-12h-0.7
			l12.3,12.2l0.3,0.3l0.3-0.3l12-12h-0.7l12.2,12.1l0.3,0.3l0.3-0.3l12.3-12.3l-0.3,0.1h95.6l-0.3-0.1l12.3,12.3l0.3,0.3l0.3-0.3
			l12.2-12.1h-0.7l12,12l0.3,0.3l0.3-0.3l12.3-12.2h-0.7l12.1,12l0.3,0.3l0.3-0.3l11.9-11.9h-0.7l11.8,11.7l0.3,0.3l0.3-0.3l12-12
			h-0.7l11.7,11.7l0.3,0.3l0.3-0.3l11.9-11.9l0.1-0.1v-0.2V257.2v-0.5h-0.5H132.3h-0.5v0.5V452v0.2l0.1,0.1l12.5,12.4l0.3,0.3
			L145.1,464.7L145.1,464.7z M132.8,452V257.2l-0.5,0.5h336.3l-0.5-0.5v195.4l0.1-0.3l-11.9,11.9h0.7l-11.7-11.7l-0.3-0.3l-0.3,0.3
			l-12,12h0.7l-11.8-11.7l-0.3-0.3l-0.3,0.3L409,464.6h0.7l-12.1-12l-0.3-0.3l-0.3,0.3l-12.3,12.2h0.7l-12-12l-0.3-0.3l-0.3,0.3
			L360.5,465h0.7l-12.3-12.3l-0.1-0.1h-0.2h-95.6h-0.2l-0.1,0.1L240.3,465h0.7l-12.2-12.1l-0.3-0.3l-0.3,0.3l-12,12h0.7l-12.3-12.2
			l-0.3-0.3l-0.3,0.3l-12.1,12h0.7l-11.9-11.9l-0.3-0.3l-0.3,0.3l-11.8,11.7h0.7l-12-12l-0.3-0.3l-0.3,0.3l-11.7,11.7h0.7
			l-12.5-12.4L132.8,452L132.8,452z"/>
		<polygon class="st3" points="284.5,280 275.6,289.5 291,303.6 205.1,379.5 226.7,399.5 251.6,378.9 276.9,400.9 299.6,379.5 
			275.3,357.6 301.3,334.3 326.7,357.3 302.9,379.2 325.4,400.9 350.4,378.4 375.6,399.8 395.8,380 312.2,303.3 326.7,289.2 
			317.5,280.3 301.3,295.2 284.5,280 		"/>
		<path class="st2" d="M284.2,279.7l-8.9,9.5l-0.3,0.3l0.3,0.3l15.4,14l0-0.7l-85.9,75.9l-0.4,0.3l0.4,0.4l21.6,20l0.3,0.3l0.3-0.3
			l24.9-20.5l-0.6,0l25.4,21.9l0.3,0.3l0.3-0.3l22.7-21.4l0.4-0.3l-0.4-0.3l-24.3-21.8l0,0.7l26-23.3l-0.6,0l25.3,23l0-0.7
			l-23.8,21.8l-0.4,0.3l0.4,0.3l22.5,21.7l0.3,0.3l0.3-0.3l25.1-22.5l-0.6,0l25.2,21.4l0.3,0.3l0.3-0.3l20.2-19.8l0.4-0.3l-0.4-0.3
			l-83.7-76.7l0,0.7l14.5-14l0.3-0.3l-0.3-0.3l-9.2-9l-0.3-0.3l-0.3,0.3l-16.2,14.9l0.6,0l-16.8-15.1l-0.3-0.3L284.2,279.7
			L284.2,279.7z M301.6,295.5l16.2-14.9l-0.6,0l9.2,9l0-0.7l-14.5,14l-0.4,0.3l0.4,0.3l83.7,76.7l0-0.7l-20.2,19.8l0.6,0L350.7,378
			l-0.3-0.3l-0.3,0.3L325,400.5l0.6,0l-22.5-21.7l0,0.7l23.8-21.8l0.4-0.3L327,357l-25.3-23l-0.3-0.3L301,334l-26,23.3l-0.4,0.3
			l0.4,0.3l24.3,21.8l0-0.7l-22.7,21.4l0.6,0l-25.4-21.9l-0.3-0.3l-0.3,0.3l-24.9,20.5l0.6,0l-21.6-20l0,0.7l85.9-75.9l0.4-0.3
			l-0.4-0.4l-15.4-14l0,0.7l8.9-9.5l-0.7,0l16.8,15.1l0.3,0.3L301.6,295.5L301.6,295.5z"/>
		<polygon class="st1" points="205.5,532.7 226.3,511.9 251.1,533.3 276.5,510.5 298.4,532.7 274.9,554.6 300.1,577 325.4,554.9 
			302.5,532.2 324.9,510.5 350,533.8 375.2,511.6 395.4,533 300,616.2 205.5,532.7 		"/>
		<path class="st2" d="M205.9,533.1l20.8-20.8l-0.7,0l24.9,21.4l0.4,0.3l0.4-0.3l25.4-22.8l-0.7,0l21.8,22.2l0-0.8l-23.5,21.8
			l-0.4,0.4l0.4,0.4l25.2,22.5l0.4,0.3l0.4-0.3l25.3-22.2l0.4-0.4l-0.4-0.4l-22.9-22.7l0,0.8l22.5-21.7l-0.7,0l25.1,23.3l0.4,0.3
			l0.4-0.3l25.2-22.2l-0.7,0l20.2,21.5l0-0.8l-95.4,83.1l0.7,0l-94.5-83.4L205.9,533.1L205.9,533.1z M300.3,616.6l95.4-83.1l0.4-0.4
			l-0.4-0.4l-20.2-21.5l-0.4-0.4l-0.4,0.3l-25.2,22.2l0.7,0l-25.1-23.3l-0.4-0.3l-0.4,0.4l-22.5,21.7l-0.4,0.4l0.4,0.4l22.9,22.7
			l0-0.8l-25.3,22.2l0.7,0l-25.2-22.5l0,0.8l23.5-21.8l0.4-0.4l-0.4-0.4l-21.8-22.2l-0.4-0.4l-0.4,0.3l-25.4,22.8l0.7,0l-24.9-21.4
			l-0.4-0.3l-0.4,0.4l-20.8,20.8l-0.4,0.4l0.4,0.4l94.5,83.4l0.4,0.3L300.3,616.6L300.3,616.6z"/>
		<path class="st5" d="M354.5,454.9c0,29.9-24.2,54.1-54.1,54.1c-29.9,0-54.1-24.2-54.1-54.1c0-29.9,24.2-54.1,54.1-54.1
			C330.3,400.8,354.5,425,354.5,454.9L354.5,454.9z"/>
		<path class="st2" d="M354.1,454.9c0,29.6-24,53.6-53.6,53.6c-29.6,0-53.6-24-53.6-53.6c0-29.6,24-53.6,53.6-53.6
			C330,401.3,354.1,425.3,354.1,454.9L354.1,454.9z M300.5,400.3c-30.1,0-54.5,24.5-54.5,54.5c0,30.1,24.5,54.5,54.5,54.5
			s54.5-24.5,54.5-54.5C355,424.8,330.5,400.3,300.5,400.3L300.5,400.3z"/>
		<path class="st1" d="M284.3,440.4c0,0-6.7,6.2-3.8,13.2c2.9,7,3.8,10.5,1.5,17c-2.3,6.4-2.1,17.6,1.5,21.1
			c3.5,3.5,5.9,2.3,5.9,2.3s2.1,7.9,9.4,7.6c7.3-0.3,9.7-6.4,9.7-6.4s3.2,1.2,7-0.9c3.8-2,5-7.3,5-10.8c0-3.5-1.2-7.6-2.9-12.3
			c-1.8-4.7,1.8-6.7,2.3-9.7c0.6-2.9,2.3-5.9,0.9-10.8c-1.5-5-6.4-9.4-6.4-9.4s3.8,6.4,0.6,12c-3.2,5.6-6.2,11.7-6.2,11.7
			s-0.6-3.5,1.2-8.5c1.8-5,0.6-10.5-2.6-13.8c-3.2-3.2-5.9-4.7-4.1-12.3c1.8-7.6,1.5-11.1,0-15.2c-1.5-4.1-3.2-7-3.2-7
			s3.8,9.4-1.5,15.5c-5.3,6.2-7.9,16.7-4.7,20.2c3.2,3.5,4.7,9.1,2.6,14.1c-2.1,5-1.8,8.2-1.8,8.2c0,0-2.1-2.6-1.5-7.6
			c0.6-4.4-4.4-5-7-7.3c-2.6-2.3-3.2-4.4-2.9-6.2C283.4,443.3,284.3,440.4,284.3,440.4L284.3,440.4z"/>
		<path class="st2" d="M283.9,440c-0.1,0.1-7,6.5-3.9,13.8c2.8,6.8,3.8,10.2,1.5,16.6c-2.4,6.6-2.1,17.9,1.6,21.7
			c3.7,3.7,6.4,2.5,6.5,2.4l-0.8-0.3c0,0.1,2.3,8.3,9.9,8c7.6-0.3,10.1-6.7,10.1-6.8l-0.7,0.3c0.1,0.1,3.5,1.2,7.5-0.9
			c3.9-2.1,5.3-7.4,5.3-11.3c0-3.2-0.9-7-3-12.5c-1.1-2.9-0.1-4.6,1-6.4c0.5-0.9,1.1-1.9,1.3-3c0.1-0.7,0.3-1.3,0.5-2
			c0.7-2.4,1.5-5.1,0.3-9.1c-1.5-5.1-6.4-9.4-6.6-9.6l-0.8,0.7c0,0.1,3.6,6.2,0.6,11.5c-3.2,5.5-6.1,11.7-6.2,11.8l1,0.1
			c0,0-0.5-3.5,1.1-8.2c1.8-5.1,0.7-10.9-2.8-14.3c-0.3-0.3-0.7-0.7-1-1c-2.7-2.6-4.5-4.3-3-10.8c1.8-8,1.4-11.5,0-15.5
			c-1.5-4.1-3.2-7-3.3-7.1l-1,0.5c0,0.1,3.6,9.1-1.4,15c-5.1,5.9-8.3,17-4.7,20.9c3.3,3.6,4.4,9.1,2.5,13.5c-2.1,5-1.8,8.3-1.8,8.5
			l1-0.4c0,0-2-2.6-1.4-7.2c0.5-3.4-2.1-4.8-4.4-6c-1-0.5-2-1.1-2.8-1.8c-2.2-1.9-3.1-3.8-2.8-5.7c0.3-1.7,1.1-4.6,1.2-4.6l0.6-1.9
			L283.9,440L283.9,440z M282.6,445c-0.4,2.3,0.6,4.4,3.1,6.6c0.9,0.8,1.9,1.3,3,1.9c2.3,1.2,4.2,2.3,3.9,5c-0.7,5.1,1.5,7.9,1.6,8
			l1.1,1.4l-0.2-1.8c0,0-0.2-3.2,1.7-7.9c2-4.8,0.9-10.7-2.7-14.6c-3-3.2-0.5-13.4,4.7-19.5c5.4-6.3,1.7-15.7,1.6-16.1l-1,0.5
			c0,0,1.7,2.9,3.2,6.9c1.4,3.9,1.8,7.2,0,14.9c-1.6,7.1,0.5,9.2,3.3,11.9c0.3,0.3,0.6,0.6,1,0.9c3.1,3.1,4.2,8.6,2.5,13.2
			c-1.8,5.1-1.2,8.6-1.2,8.8l0.3,1.7l0.7-1.5c0-0.1,3-6.2,6.1-11.7c3.3-5.8-0.4-12.3-0.6-12.6l-0.8,0.7c0,0,4.9,4.4,6.3,9.1
			c1.1,3.7,0.4,6.1-0.3,8.4c-0.2,0.7-0.4,1.4-0.6,2.1c-0.2,0.9-0.7,1.7-1.2,2.6c-1.1,1.9-2.4,4-1.1,7.3c2,5.3,2.9,9.1,2.9,12.1
			c0,3.6-1.2,8.5-4.7,10.4c-3.6,1.9-6.6,0.9-6.6,0.8l-0.5-0.2l-0.2,0.5c-0.1,0.2-2.3,5.8-9.2,6.1c-6.8,0.3-8.8-7.1-8.8-7.2l-0.2-0.6
			l-0.6,0.3c-0.1,0-2.1,0.9-5.2-2.2c-3.4-3.4-3.6-14.3-1.3-20.5c2.4-6.7,1.4-10.4-1.5-17.4c-2.7-6.6,3.6-12.5,3.7-12.6l-0.9-0.6
			C283.7,440.3,282.9,443.2,282.6,445L282.6,445z"/>
		<path class="st7" d="M289.8,489.2c0,0,0,0-0.4,3.2c-0.2,1.7,1.8,5.9,4.2,7.2c2.4,1.4,7.3,2.1,9.9,0.4c2.5-1.8,4.6-5.3,4.6-5.3
			s2.3,0.5,4,0.2c1.7-0.3,3.9-1,5.5-3.2c1.6-2.2,2.2-7.4,2.2-7.4s-2.3,8.2-5.9,8.6c-3.5,0.4-3,0.6-3.5-0.5c-0.5-1.1,0.6-3.2,0.6-3.2
			s-2.1,2.3-2.4,3.3c-0.4,1-2.7,2.5-2.7,2.5s0.8-1.7,1.4-4.6c0.6-2.9-0.2-4.9-1.6-7.2c-1.4-2.3-4.8-5.3-4.8-7.7
			c0-2.4,1.2-8.9,1.2-8.9s-4.2,2.8-5.2,6.7c-1,3.9,0.7,7.7,0.3,10.5c-0.4,2.8-2.6,4.5-2.8,6.9c-0.2,2.4,0.7,3.9,1.7,5.3
			c1,1.4,2.1,3.1,2.1,3.1s-3.6-0.4-5.2-2.4C289.2,492.1,289.8,489.2,289.8,489.2L289.8,489.2z"/>
		<path class="st6" d="M293,127c0,0-1.4-16.1-6-20.9c-4.6-4.8-16.5-8.9-16.9-12.1c-0.4-3.2-0.4-9.2,3-11.1c3.4-1.9,8.9-1.7,8.9-1.7
			c0,0-9.5-2.4-8.5-9.5c1-7,4.4-9.1,6.6-10.5c2.2-1.4,4.8-0.6,6.6-0.2c1.8,0.4,3,2.2,3,2.2s-1.6-4,1-9.3c2.6-5.2,5-7.5,8.9-7.7
			c3.8-0.2,8.5,1,10.5,6c2,5,1.4,10.9,1.4,10.9s2.1-2.2,5.2-2.8c5.4-1,11.9,8.1,11.1,11.9c-0.8,3.8-7.9,8.3-7.9,8.3s4.8-0.5,7.9,2.3
			c3,2.9,4,6.1,3.2,8.9c-0.8,2.8-2.6,5.8-6.4,6.8c-3.8,1-8.3,4.6-10.1,7.7c-1.8,3-6,20.1-6,20.1L293,127L293,127z"/>
		<path class="st2" d="M293.6,127c-0.1-0.7-1.5-16.4-6.2-21.3c-2.2-2.3-6-4.4-9.4-6.3c-3.5-2-7.2-4-7.3-5.4
			c-0.2-1.4-0.9-8.5,2.7-10.5c3.2-1.8,8.5-1.7,8.5-1.7l0.2-1.2c-0.1,0-8.9-2.4-8-8.8c0.9-6.6,4-8.5,6.2-9.9l0.2-0.1
			c1.8-1.1,3.9-0.6,5.7-0.2l0.5,0.1c1.6,0.3,2.6,1.9,2.7,2l1.1-0.6c0,0-1.5-3.9,1-8.8c2.6-5.2,4.8-7.1,8.4-7.3
			c2.8-0.1,7.8,0.4,9.9,5.7c1.9,4.8,1.4,10.5,1.4,10.6l-0.2,1.8l1.2-1.3c0,0,2-2.1,4.9-2.6c1.9-0.4,4.3,0.7,6.5,3
			c2.6,2.6,4.3,6.3,3.9,8.2c-0.7,3.5-7.5,7.8-7.6,7.9l0.4,1.1c0,0,4.6-0.5,7.4,2.2c2.8,2.6,3.8,5.6,3.1,8.3c-0.7,2.4-2.3,5.4-6,6.4
			c-4.2,1.1-8.7,5-10.4,7.9c-1.8,3.1-5.9,19.6-6.1,20.3l0.6-0.5l-15.5,0.6L293.6,127L293.6,127z M309,126.6L309,126.6
			c0-0.2,4.2-17.1,6-20c1.7-2.8,6-6.4,9.7-7.4c4.3-1.1,6.1-4.6,6.9-7.3c0.9-3.1-0.3-6.6-3.4-9.5c-3.2-3.1-8.1-2.5-8.3-2.5l0.4,1.1
			c0.3-0.2,7.3-4.6,8.1-8.6c0.5-2.3-1.3-6.3-4.2-9.3c-2.5-2.6-5.2-3.8-7.5-3.3c-3.3,0.6-5.5,2.9-5.6,3l1,0.5c0-0.2,0.6-6-1.4-11.2
			c-1.7-4.4-5.8-6.7-11.1-6.4c-4,0.2-6.6,2.4-9.4,8c-2.7,5.5-1,9.8-1,9.8l1-0.6c-0.1-0.1-1.4-2-3.4-2.5l-0.5-0.1
			c-1.8-0.4-4.4-1-6.6,0.4l-0.2,0.1c-2.3,1.4-5.7,3.6-6.8,10.8c-1.1,7.5,8.8,10.1,8.9,10.1l0.2-1.2c-0.2,0-5.6-0.2-9.2,1.8
			c-4.1,2.4-3.6,9.6-3.3,11.7c0.3,2,3.7,3.9,8,6.3c3.3,1.8,7,3.9,9.1,6.1c4.4,4.6,5.9,20.4,5.9,20.6l0,0.6l0.6,0l15.5-0.6l0.5,0
			L309,126.6L309,126.6z"/>
		<path class="st8" d="M323,86.5c0.3-0.5,0.5-1.2,0.7-2.1c0.3-1.2-0.5-2.5-2.1-3.4c-0.3-0.2-0.6-0.3-0.9-0.4c1-0.6,1.9-1.5,2.5-2.8
			c0.7-1.7,0.4-2.9,0-3.7c-0.6-1.1-1.9-1.9-3.5-2.2c-0.6-0.1-1.2-0.1-1.7,0l0.8-1.9c0.6-1.6,0.4-3.8-0.6-5.4c-0.8-1.2-1.9-2-3.3-2.1
			c-2.2-0.2-3.6,0.5-4.7,1.7c1.3-4.4,0.7-8.2-0.4-10.3c-0.4-0.7-1-1.7-1.9-2c-1.2-0.4-5.4-0.7-6.5,1.4c-0.1,0.2-0.3,0.5-0.4,0.8
			c-0.4-0.8-1.1-1.7-2-2.1c-3.7-1.8-5.9,0.1-7.4,1.4c-1.9,1.7-2.6,5.8-2.2,8.7c0.1,0.6,0.2,1.2,0.4,1.9c-1.5-1.1-3.4-1.7-4.7-1.6
			c-1.1,0.1-1.6,0.6-1.8,1c-0.7,1.1-1.6,3.6-1.4,5.8c0.1,0.8,0.3,2.1,0.4,3.1c-0.5-0.2-1-0.4-1.5-0.4c-1-0.1-2,0.2-2.9,1
			c-0.9,0.8-1.5,1.8-1.5,2.8c0,0.1,0,0.1,0,0.2c-0.1,1.6,0.3,3.4,2.7,5.5c-0.2,0.1-0.4,0.2-0.6,0.3c-1.6,0.9-2.3,2.2-2.1,3.4
			c0.2,0.9,0.5,1.6,0.7,2.1c-0.8,0.7-1.5,1.9-1.4,3.9c0.2,3.6,0.9,4.9,6.4,9.9c5.4,4.8,8.9,13.4,8.9,13.5l2.3-0.5c0,0,0-0.8-0.1-2.1
			l0.9,0.1l2.2-8.7l0-0.1l0-0.1c0-0.3,0.4-4,0.7-8.4l6.4,8.4l1.1,1.5c0.8,4.8,1.6,8.8,1.6,9.1l1-0.1l1.3,0.3c0-0.1,3.6-8.7,8.9-13.5
			c5.6-5,6.2-6.3,6.4-9.9C324.5,88.5,323.8,87.3,323,86.5L323,86.5z M310.5,67.9c1.6-2.6,2.4-3.2,4.3-3.1c0.6,0,1,0.4,1.4,1
			c0.6,0.9,0.7,2.3,0.4,3.2l-1.8,4.6l2,1.3c0,0,1-0.9,2.6-0.7c0.9,0.2,1.6,0.5,1.8,1c0.2,0.4,0.2,0.9-0.1,1.6
			c-0.5,1.2-1.8,1.8-3.2,2.5c-0.7,0.3-1.5,0.7-2.2,1.2c-0.1,0.1-0.2,0.1-0.3,0.2c-0.3,0.2-0.6,0.4-0.9,0.6
			c-2.5,2.2-5.1,5.1-6.2,10.1c0.1-2.6,0.4-5.2,0.8-6.3c1-2.8,3.6-8.5,3.6-8.5s-2.6,2.2-4.6,7.7c-0.9,2.5-1.6,5.9-2,8.8
			c0-0.3,0-0.6,0-0.8v-2.5C306.4,83,309,70.3,310.5,67.9L310.5,67.9z M284.1,99.2c-5.4-4.8-5.5-5.6-5.6-8.2
			c-0.1-1.8,0.7-2.1,0.9-2.2l0.1,0c0,0,0.2-0.1,0.2-0.1l1.3-0.7l-1-1.1c0,0-0.6-0.8-0.9-2.3c0-0.2,0.5-0.8,1.6-1.2
			c0.2-0.1,0.6-0.2,1.1-0.3c0.4,0.3,0.9,0.6,1.4,0.8c2.2,1.3,3.5,2.3,4.3,3.2c0.7,1,1.3,2.1,1.8,3.4c0.1,0.2,0.1,0.3,0.2,0.5
			c0.4,1.1,0.6,2.4,0.8,3.9c0.1,1.4,0.3,3.3,0.4,5.2c-0.6-1.1-1.4-2.4-2-3.5c-1.8-3-5.4-5.8-5.4-5.8s2.2,2.6,3.6,4.8
			c1.4,2.2,4.2,11.5,4.2,11.5l0-0.1c0,0.4,0,0.8,0.1,1.2C289.4,105.3,287,101.8,284.1,99.2L284.1,99.2z M291.8,90.7
			c-0.1-0.2-0.1-0.3-0.2-0.5c-0.1-0.4-0.3-0.7-0.4-1.1c-0.4-1-0.8-2.1-1.9-3.4c-1.1-1.5-2.3-2.7-3.4-3.7c-1-0.9-2.3-1.3-3.5-1.3
			c-3.4-2.4-3.4-3.9-3.4-4.8c0-0.1,0-0.2,0-0.3c0-0.2,0.2-0.6,0.6-1c0.3-0.3,0.7-0.5,1-0.4c0.9,0.1,2.3,0.9,2.7,1.2l2.3,1.5
			c0,0-0.5-2.7-0.5-2.7c0,0-0.6-3.6-0.8-5.4c-0.2-1.4,0.4-3.1,0.9-4.1c0.7-0.1,2.9,0.6,4,1.9c1.4,1.7,4.6,7.4,5.6,13.7
			c0.3,2,0.4,5,0.3,8.2c-0.6-2.2-1.4-4.6-1.9-5.7c-1.2-2.3-5.6-5.8-5.6-5.8c0,0,3.8,5.8,5.2,9.7c1.4,3.9,1.4,15.9,1.4,15.9l-0.2,0.9
			C293.7,96.6,293.2,93.3,291.8,90.7L291.8,90.7z M303.6,92.5v6.2l-4.8-6.3c0-0.8,0-2.4-0.2-4.6l5,0.3v1.7
			C303.6,90.6,303.6,91.5,303.6,92.5L303.6,92.5z M303.7,83.9l-3.7-18l-1.9,15.9c-0.4-3-0.9-6-1.8-8.3c-0.8-2-1.5-3.7-2.1-5.1
			c-1.2-3-2-4.9-2.3-6.7c-0.4-2.5,0.3-5.6,1.4-6.6c1.5-1.3,2.6-2.1,4.7-1c1,0.5,1.5,2.4,1.5,3.3l0.4,4l1.9-3.5
			c0.1-0.1,1.2-2.2,1.8-3.4c0.4-0.4,2.5-0.6,3.5-0.2c0.6,0.5,2.5,4.4,0.5,10.2C305.8,69.9,304.2,78.6,303.7,83.9L303.7,83.9z
			 M321.9,90.3c-0.2,2.6-0.2,3.4-5.6,8.2c-2.8,2.5-5.2,6-6.8,8.8c0-0.4,0.1-0.9,0.1-1.3c1-2.7,2.3-6.1,3.1-7.8
			c1.4-3.2,5.4-9.1,5.4-9.1s-2.4,2.6-4.6,5c-1.1,1.2-2.4,3.6-3.4,5.9c0.1-0.8,0.1-1.6,0.2-2.4c0.5-6.2,4.6-13.3,6.4-15
			c1.2-0.6,2.6-0.2,3.1,0c1.1,0.4,1.5,1,1.6,1.2c-0.3,1.5-0.9,2.3-0.9,2.3l-1.3,1.6c0,0,2,0.4,2,0.4
			C321.2,88.2,322.1,88.5,321.9,90.3L321.9,90.3z"/>
		<polygon class="st9" points="210.5,256.3 392.5,256.3 454.5,137 381.8,198.3 397.8,112.3 353.8,166.3 357.2,107.7 320.5,165 
			301.2,81.7 282.5,165 247.2,109 249.8,166.3 206.5,113 221.8,200.3 147.8,136.3 210.5,256.3 		"/>
		<polygon class="st8" points="258.2,141.7 279.9,179.3 275.2,199.7 259.9,182.7 258.2,141.7 		"/>
		<polygon class="st8" points="346.2,141 343.5,183.3 329.5,199 323.9,179.7 346.2,141 		"/>
		<path class="st8" d="M393.4,255.7c-12.9-7.2-49-12.3-91.6-12.3c-42.5,0-78.6,5.2-91.6,12.3H393.4L393.4,255.7z"/>
		<path class="st6" d="M211.5,256c0,0,15.3-12,87-12c71.7,0,94,12.3,94,12.3l2.3-7c0,0-5.3-12-93.3-12c-88,0-93.7,11.7-93.7,11.7
			l2.7,7.3L211.5,256L211.5,256z"/>
		<path class="st8" d="M392.3,256.8c0,0-1.3-0.7-4.5-1.9l0,0c-3.2-1.1-8.2-2.7-15.4-4.2l0,0c-14.5-3.1-38-6.2-73.8-6.2l0,0
			c-62.7,0-82.2,9.2-85.9,11.4l0,0c-0.5,0.3-0.7,0.5-0.7,0.5l0,0l-0.6-0.8c0.2-0.1,15.6-12.1,87.3-12.1l0,0
			c65.6,0,89.9,10.3,93.7,12.1l0,0l2.1-6.2c0-0.1-0.1-0.1-0.2-0.2l0,0c-0.3-0.3-0.8-0.7-1.7-1.3l0,0c-1.8-1.1-5.2-2.6-11.3-4.1l0,0
			c-12.3-3-35.6-6-79.5-6l0,0c-80.3,0-92,9.8-93.1,11.2h0l2.6,7.1l-0.9,0.3l-2.7-7.5l0.1-0.2c0.3-0.4,6.1-11.9,94.1-11.9l0,0
			c88,0,93.5,11.9,93.8,12.3l0,0l0.1,0.2l-2.6,7.8L392.3,256.8L392.3,256.8z"/>
		<polygon class="st6" points="163.2,163.7 224.2,219.3 233.2,218 223.9,148.7 269.9,215 279.2,215.3 301.2,134.7 323.9,213 
			333.9,214.3 380.5,147.3 370.9,218 379.5,220.3 439.5,164 451.5,141 380.5,201 395.9,116.7 329.9,197 301.4,84.5 274.2,197.3 
			208.5,117 222.9,202 151.9,141 163.2,163.7 		"/>
		<path class="st8" d="M370.3,218.4l9.4-69l-45.7,65.5l-10.6-1.4l-22.3-76.9l-21.6,79.3l-10-0.4l-45-64.8l9.1,67.8l-9.7,1.4
			L162.8,164l0.3-0.4l0.4-0.2l-0.4,0.2l-0.3,0.4l-0.1-0.1l-11.4-22.8l0.8-0.6l70,60.1l-14.4-85.5l66.2,81l26.9-111.9l1,0l28.3,111.5
			l66.6-81.1l-15.4,84.9l69.9-59.1l0.8,0.6l-12,23.1l-60.3,56.6L370.3,218.4L370.3,218.4z M381,147.4l-9.6,70.2l8,2.1l59.7-56.1
			l10.8-20.7l-70.1,59.3l15.2-83.8l-65.4,79.6L301.4,86.6l-26.9,111.8l-65.1-79.6l14.3,84.5L153.4,143l10.2,20.4l60.8,55.4l8.3-1.2
			l-9.3-68.8l0.9-0.4l45.9,66.1l8.7,0.3l22.4-82l23.1,79.7l9.4,1.2l46.5-66.7L381,147.4L381,147.4z"/>
		<path class="st6" d="M200.9,236.7c0,0,20.3-15,102.7-15c82.3,0,97.3,14.3,98,14.3c0.7,0,3.7-6.7,3.7-6.7S386.5,213,303.5,213
			c-83,0-107,16-107,16L200.9,236.7L200.9,236.7z"/>
		<path class="st8" d="M195.9,228.8l0.4-0.3c0.1-0.1,24.2-16.1,107.3-16.1l0,0c83.1,0,101.8,16.3,102,16.5l0,0l0.3,0.2l-0.2,0.3
			c0,0-2.3,5.1-3.4,6.5l0,0c-0.2,0.2-0.3,0.4-0.7,0.5l0,0c-0.4-0.1-0.4-0.1-0.6-0.2l0,0c-0.2-0.1-0.4-0.3-0.7-0.5l0,0
			c-0.6-0.4-1.6-0.9-2.9-1.6c-2.8-1.3-7.2-3.1-14.3-4.9l0,0c-14.1-3.6-38.4-7.2-79.5-7.2l0,0c-72,0-96.5,11.5-101.4,14.3l0,0
			c-0.7,0.4-1,0.6-1,0.6l0,0l-0.5,0.3L195.9,228.8L195.9,228.8z M200.9,236.7l0.4-0.2L200.9,236.7L200.9,236.7z M201,235.9
			c3.5-2.2,26.9-14.8,102.5-14.8l0,0c60.8,0,85,7.8,93.8,12l0,0c2.3,1.1,3.7,2,4.2,2.3l0,0c0,0,0,0,0,0l0,0c0.1-0.2,0.3-0.4,0.5-0.7
			l0,0c0.4-0.6,0.8-1.4,1.2-2.3l0,0c0.6-1.2,1.1-2.4,1.4-3l0,0c-0.1-0.1-0.3-0.3-0.6-0.4l0,0c-0.7-0.4-1.7-1.1-3.2-1.8l0,0
			c-3-1.5-7.9-3.5-15.4-5.6l0,0c-15-4.1-40.4-8.2-81.8-8.2l0,0c-62.2,0-91.2,9-101.8,13.5h0c-2.5,1-3.9,1.8-4.6,2.2h0L201,235.9
			L201,235.9z"/>
		<path class="st10" d="M387.5,254.8c-3.3-1.2-8.4-2.8-15.4-4.4l0,0c-14.1-3.2-36-6.6-67.5-6.9l0,0c-1.6,0-3.2,0-4.8,0l0,0
			c-46.9,0-73.7,7.1-84.1,10.7h0c-3.5,1.2-5.1,2-5.1,2l0,0l-0.4-0.9c0.1,0,27-12.7,89.7-12.7l0,0c1.6,0,3.2,0,4.8,0l0,0
			c63.1,0.6,88.1,13.3,88.2,13.4l0,0l-0.5,0.9C392.3,256.8,390.8,256,387.5,254.8L387.5,254.8L387.5,254.8z"/>
		<path class="st10" d="M210.5,256.8v-0.5l0.4-0.2l-0.4,0.2V256.8h-0.3l-62.1-119.4l0.8-0.6l72.2,62.2l-14.3-86.3l42.5,52.1
			l-2.7-57.7l35.2,55.4l18.9-81l1,0l20.1,81l36.1-56.8l-3.4,59.1l43.2-52.1L382.6,197l71.6-60.4l0.8,0.6l-62.1,119.6H210.5
			L210.5,256.8z M392.2,255.8L452.9,139l-71.8,60.6l14.9-83.3l-42.8,51.6l3.3-58.3l-35.3,55.5l-20.1-81.3l-19,81.3l-34.5-54.3
			l2.6,57l-42-51.6l14.2,85.3l-72.3-62.3l60.6,116.5H392.2L392.2,255.8z"/>
	</g>
</g>
</svg>
